<svg id="Layer_1" data-name="Layer 1" xmlns="http://www.w3.org/2000/svg" viewBox="0 0 198.64 220.33"><defs><style>.cls-1{fill:#6aa361;}.cls-2{fill:#90c185;}.cls-3{fill:#b9d6b2;}</style></defs><polygon class="cls-1" points="67.76 92.05 99.25 73.87 130.74 92.05 130.74 128.42 99.25 146.6 67.76 128.42 67.76 92.05"/><polygon class="cls-2" points="108.63 36.66 135.42 21.19 162.21 36.66 162.21 67.59 135.42 83.06 108.63 67.59 108.63 36.66"/><polygon class="cls-2" points="36.65 36.58 63.44 21.11 90.23 36.58 90.23 67.52 63.44 82.98 36.65 67.52 36.65 36.58"/><polygon class="cls-2" points="108.67 152.68 135.46 137.22 162.25 152.68 162.25 183.62 135.46 199.08 108.67 183.62 108.67 152.68"/><polygon class="cls-2" points="36.68 152.61 63.47 137.14 90.26 152.61 90.26 183.54 63.47 199.01 36.68 183.54 36.68 152.61"/><polygon class="cls-2" points="5.34 94.87 32.13 79.4 58.92 94.87 58.92 125.8 32.13 141.27 5.34 125.8 5.34 94.87"/><polygon class="cls-2" points="140.01 94.87 166.8 79.4 193.59 94.87 193.59 125.8 166.79 141.27 140.01 125.8 140.01 94.87"/><polygon class="cls-3" points="0 51.19 13.53 43.38 27.06 51.19 27.06 66.81 13.53 74.63 0 66.81 0 51.19"/><polygon class="cls-3" points="86.05 7.81 99.58 0 113.11 7.81 113.11 23.43 99.58 31.25 86.05 23.43 86.05 7.81"/><polygon class="cls-3" points="171.58 54.67 185.11 46.86 198.64 54.67 198.64 70.3 185.11 78.11 171.58 70.3 171.58 54.67"/><polygon class="cls-3" points="171.58 150.21 185.11 142.4 198.64 150.21 198.64 165.84 185.11 173.65 171.58 165.84 171.58 150.21"/><polygon class="cls-3" points="86.11 196.89 99.64 189.08 113.17 196.89 113.17 212.52 99.64 220.33 86.11 212.52 86.11 196.89"/><polygon class="cls-3" points="0.12 148.21 13.65 140.4 27.18 148.21 27.18 163.84 13.65 171.65 0.12 163.84 0.12 148.21"/></svg>