<svg width="446" height="453" viewBox="0 0 446 453" fill="none" xmlns="http://www.w3.org/2000/svg">
<path d="M323.83 330.49C342.37 308.89 336.83 290.98 331.02 268.87C327.6 255.8 324.47 241.92 327.84 228.87C335.38 199.59 367.07 185.04 382.2 158.87C390.2 144.98 385.9 123.98 362.63 117.38C337.63 110.29 307.25 113.89 276.18 100.72C245.11 87.55 228.13 30.12 178.72 42.16C136.42 52.47 130.62 117.37 129.12 128.8C127.62 140.23 123.89 152.04 115.21 159.62C107.83 166.07 97.92 168.62 89.15 172.96C75.04 179.96 63.25 193.16 61.27 208.8C59.45 223.28 66.27 237.8 76.27 248.42C86.27 259.04 99.27 266.27 112.27 272.86C117.82 275.67 123.81 278.78 126.48 284.41C130.91 293.77 123.94 304.41 116.75 311.88C109.56 319.35 101.13 327.88 102.28 338.17C103.65 350.35 118.28 356.85 130.44 355.61C145.75 354.05 158.93 344.61 172.89 338.15C190.98 329.75 211.67 323.28 231.12 327.7C264.66 335.27 305.28 352.1 323.83 330.49Z" fill="#2C6E49"/>
<path d="M311.37 120.28C330.965 120.28 346.85 111.308 346.85 100.24C346.85 89.1722 330.965 80.2 311.37 80.2C291.775 80.2 275.89 89.1722 275.89 100.24C275.89 111.308 291.775 120.28 311.37 120.28Z" fill="#2C6E49"/>
<path d="M298 64.34C298 65.084 297.779 65.8114 297.366 66.4299C296.952 67.0485 296.364 67.5304 295.677 67.8147C294.989 68.099 294.232 68.1729 293.503 68.027C292.773 67.8811 292.103 67.522 291.578 66.9951C291.052 66.4683 290.695 65.7974 290.551 65.0674C290.407 64.3373 290.483 63.581 290.769 62.8941C291.055 62.2073 291.539 61.6207 292.158 61.2088C292.778 60.7968 293.506 60.578 294.25 60.58C294.743 60.58 295.232 60.6773 295.687 60.8664C296.143 61.0554 296.557 61.3326 296.905 61.6819C297.254 62.0311 297.53 62.4457 297.717 62.9018C297.905 63.358 298.001 63.8467 298 64.34Z" fill="#2C6E49"/>
<path d="M140.867 134.687C148.365 127.189 148.365 115.032 140.867 107.534C133.369 100.036 121.213 100.036 113.714 107.534C106.216 115.032 106.216 127.189 113.714 134.687C121.213 142.185 133.369 142.185 140.867 134.687Z" fill="#2C6E49"/>
<path d="M110.59 84C110.592 84.8275 110.348 85.6371 109.89 86.326C109.431 87.0149 108.778 87.5522 108.014 87.8699C107.25 88.1875 106.409 88.2711 105.597 88.1101C104.785 87.9492 104.039 87.5508 103.454 86.9657C102.869 86.3805 102.471 85.6348 102.31 84.823C102.149 84.0112 102.232 83.1699 102.55 82.4057C102.868 81.6415 103.405 80.9888 104.094 80.5303C104.783 80.0717 105.592 79.828 106.42 79.83C107.526 79.83 108.587 80.2693 109.369 81.0513C110.151 81.8334 110.59 82.894 110.59 84Z" fill="#2C6E49"/>
<path d="M62.0291 220.533C62.9893 214.618 58.9726 209.045 53.0578 208.084C47.1429 207.124 41.5696 211.141 40.6095 217.056C39.6494 222.971 43.666 228.544 49.5809 229.504C55.4957 230.464 61.069 226.448 62.0291 220.533Z" fill="#2C6E49"/>
<path d="M41.72 250.93C41.72 251.757 41.4748 252.565 41.0155 253.252C40.5562 253.94 39.9034 254.475 39.1396 254.792C38.3758 255.108 37.5353 255.191 36.7245 255.03C35.9137 254.868 35.1689 254.47 34.5843 253.886C33.9997 253.301 33.6016 252.556 33.4403 251.745C33.279 250.935 33.3618 250.094 33.6782 249.33C33.9945 248.567 34.5303 247.914 35.2177 247.454C35.9051 246.995 36.7133 246.75 37.54 246.75C38.6486 246.75 39.7118 247.19 40.4957 247.974C41.2796 248.758 41.72 249.821 41.72 250.93Z" fill="#2C6E49"/>
<path d="M8.74 180.38C8.74197 181.208 8.49825 182.017 8.03971 182.706C7.58116 183.395 6.92844 183.932 6.16424 184.25C5.40003 184.567 4.55875 184.651 3.74698 184.49C2.93521 184.329 2.18949 183.931 1.6043 183.346C1.01912 182.76 0.620805 182.015 0.459838 181.203C0.298871 180.391 0.382491 179.55 0.700105 178.786C1.01772 178.022 1.55503 177.369 2.24396 176.91C2.93288 176.452 3.74242 176.208 4.56999 176.21C5.67514 176.213 6.73426 176.653 7.51571 177.434C8.29717 178.216 8.73736 179.275 8.74 180.38Z" fill="#2C6E49"/>
<path d="M364.38 204.18C372.681 204.18 379.41 197.451 379.41 189.15C379.41 180.849 372.681 174.12 364.38 174.12C356.079 174.12 349.35 180.849 349.35 189.15C349.35 197.451 356.079 204.18 364.38 204.18Z" fill="#2C6E49"/>
<path d="M364 223.38C363.998 224.204 363.752 225.01 363.292 225.694C362.833 226.378 362.181 226.911 361.419 227.225C360.657 227.54 359.819 227.621 359.01 227.459C358.202 227.297 357.46 226.899 356.878 226.315C356.296 225.732 355.899 224.988 355.739 224.18C355.579 223.371 355.662 222.533 355.978 221.772C356.294 221.011 356.829 220.36 357.514 219.902C358.2 219.444 359.006 219.2 359.83 219.2C360.378 219.2 360.922 219.308 361.428 219.518C361.935 219.729 362.395 220.037 362.782 220.425C363.17 220.813 363.476 221.274 363.685 221.781C363.894 222.288 364.001 222.832 364 223.38Z" fill="#2C6E49"/>
<path d="M390.68 217.12C390.68 217.947 390.435 218.755 389.976 219.442C389.516 220.13 388.863 220.665 388.1 220.982C387.336 221.298 386.495 221.381 385.685 221.22C384.874 221.058 384.129 220.66 383.544 220.076C382.96 219.491 382.562 218.746 382.4 217.935C382.239 217.125 382.322 216.284 382.638 215.52C382.955 214.757 383.49 214.104 384.178 213.644C384.865 213.185 385.673 212.94 386.5 212.94C387.609 212.94 388.672 213.38 389.456 214.164C390.24 214.948 390.68 216.011 390.68 217.12Z" fill="#2C6E49"/>
<path d="M322.348 348.272C323.772 342.212 320.014 336.146 313.954 334.723C307.895 333.3 301.829 337.058 300.406 343.117C298.982 349.176 302.74 355.242 308.8 356.666C314.859 358.089 320.925 354.331 322.348 348.272Z" fill="#2C6E49"/>
<path d="M159.43 365.72C162.197 365.72 164.44 363.477 164.44 360.71C164.44 357.943 162.197 355.7 159.43 355.7C156.663 355.7 154.42 357.943 154.42 360.71C154.42 363.477 156.663 365.72 159.43 365.72Z" fill="#2C6E49"/>
<path d="M334.58 56.7133C335.927 51.0331 332.414 45.3366 326.734 43.9897C321.054 42.6428 315.358 46.1555 314.011 51.8357C312.664 57.5158 316.177 63.2124 321.857 64.5593C327.537 65.9062 333.233 62.3934 334.58 56.7133Z" fill="#2C6E49"/>
<path d="M88 103.36C88 104.256 87.7343 105.132 87.2366 105.877C86.7388 106.622 86.0313 107.202 85.2036 107.545C84.3758 107.888 83.465 107.978 82.5862 107.803C81.7075 107.628 80.9003 107.197 80.2668 106.563C79.6333 105.93 79.2018 105.122 79.027 104.244C78.8523 103.365 78.942 102.454 79.2848 101.626C79.6277 100.799 80.2083 100.091 80.9533 99.5934C81.6982 99.0956 82.5741 98.83 83.47 98.83C84.6714 98.83 85.8237 99.3072 86.6732 100.157C87.5227 101.006 88 102.159 88 103.36Z" fill="#2C6E49"/>
<path d="M211.35 410.98C292.884 410.98 358.98 408.137 358.98 404.63C358.98 401.123 292.884 398.28 211.35 398.28C129.816 398.28 63.72 401.123 63.72 404.63C63.72 408.137 129.816 410.98 211.35 410.98Z" fill="#2C6E49"/>
<path d="M134.79 426.74C134.79 428.58 116.34 430.06 93.58 430.06C70.82 430.06 52.36 428.58 52.36 426.74C52.36 424.9 70.81 423.42 93.58 423.42C116.35 423.42 134.79 424.91 134.79 426.74Z" fill="#2C6E49"/>
<path d="M200.11 335.05H163.09V337.6H200.11V335.05Z" fill="#99BAA3"/>
<path d="M196.69 335.05H170.71V337.6H196.69V335.05Z" fill="#ACD1B8"/>
<path d="M203.8 338.73H198.98V333.91H201.23L203.8 338.73Z" fill="#548769"/>
<path d="M167.18 332.83H116.64C116.104 332.83 115.67 333.264 115.67 333.8V339.08C115.67 339.616 116.104 340.05 116.64 340.05H167.18C167.716 340.05 168.15 339.616 168.15 339.08V333.8C168.15 333.264 167.716 332.83 167.18 332.83Z" fill="#548769"/>
<path d="M130.25 291.86V296C130.25 297.252 130.747 298.452 131.632 299.338C132.518 300.223 133.718 300.72 134.97 300.72H156.42C157.672 300.72 158.872 300.223 159.758 299.338C160.643 298.452 161.14 297.252 161.14 296V291.89L130.25 291.86Z" fill="#99BAA3"/>
<path d="M318 158.12C302.635 138.06 281.263 123.436 257 116.38L246.77 152C263.398 156.845 278.044 166.876 288.57 180.63C299.437 194.615 305.262 211.86 305.1 229.57C304.52 276.1 269.55 309.75 234.93 309.82L207.16 346.18C212.876 346.93 218.635 347.314 224.4 347.33C246.352 347.325 267.865 341.185 286.513 329.602C305.16 318.019 320.199 301.455 329.933 281.779C339.666 262.103 343.707 240.099 341.598 218.248C339.49 196.398 331.316 175.572 318 158.12Z" fill="#99BAA3"/>
<path d="M293.65 301.17C310.908 283.907 321.317 260.969 322.947 236.614C324.576 212.258 317.315 188.138 302.51 168.73C289.737 152.076 272.12 139.787 252.08 133.55L246.77 152C263.398 156.845 278.044 166.876 288.57 180.63C299.437 194.615 305.262 211.86 305.1 229.57C304.52 276.1 269.55 309.75 234.93 309.82L219 330.64C220.15 330.64 221.27 330.7 222.34 330.7C235.588 330.738 248.713 328.147 260.953 323.078C273.193 318.009 284.307 310.563 293.65 301.17Z" fill="#ACD1B8"/>
<path d="M234.93 309.81L220 294.68H164.62C166.074 296.995 168.092 298.904 170.484 300.228C172.877 301.552 175.566 302.248 178.3 302.25H181.4C182.411 302.25 183.403 302.531 184.264 303.06C185.126 303.59 185.823 304.348 186.28 305.25L207.16 346.18L234.93 309.81Z" fill="#ACD1B8"/>
<path d="M294.054 163.726C302.771 155.009 302.771 140.877 294.054 132.16C285.338 123.444 271.205 123.444 262.489 132.16C253.772 140.877 253.772 155.009 262.489 163.726C271.205 172.442 285.338 172.442 294.054 163.726Z" fill="#83B295"/>
<path d="M285.868 153.959C289.2 149.764 288.5 143.663 284.305 140.331C280.111 136.999 274.009 137.698 270.677 141.893C267.345 146.088 268.044 152.19 272.239 155.522C276.434 158.854 282.536 158.154 285.868 153.959Z" fill="#2C6E49"/>
<path d="M238.13 350.67L232.13 396.06H300.9L260.9 344.51C259.36 342.508 257.26 341.008 254.866 340.2C252.472 339.393 249.893 339.314 247.454 339.973C245.016 340.633 242.828 342.002 241.168 343.906C239.508 345.81 238.451 348.164 238.13 350.67Z" fill="#ACD1B8"/>
<path d="M272.42 359.4L260.85 344.51C259.305 342.525 257.208 341.04 254.822 340.243C252.436 339.446 249.868 339.372 247.44 340.031C245.013 340.689 242.834 342.05 241.177 343.943C239.52 345.836 238.46 348.176 238.13 350.67L235.8 368.32C241.862 371.901 249.083 372.973 255.924 371.307C262.765 369.641 268.684 365.368 272.42 359.4Z" fill="#99BAA3"/>
<path d="M249.52 362.79C259.329 362.79 267.28 354.839 267.28 345.03C267.28 335.221 259.329 327.27 249.52 327.27C239.711 327.27 231.76 335.221 231.76 345.03C231.76 354.839 239.711 362.79 249.52 362.79Z" fill="#4D6390"/>
<path d="M249.52 362.79C259.329 362.79 267.28 354.839 267.28 345.03C267.28 335.221 259.329 327.27 249.52 327.27C239.711 327.27 231.76 335.221 231.76 345.03C231.76 354.839 239.711 362.79 249.52 362.79Z" fill="#83B295"/>
<path d="M249.52 352.75C253.784 352.75 257.24 349.294 257.24 345.03C257.24 340.766 253.784 337.31 249.52 337.31C245.256 337.31 241.8 340.766 241.8 345.03C241.8 349.294 245.256 352.75 249.52 352.75Z" fill="#2C6E49"/>
<path d="M282.58 118.49L265.43 111.18L242.14 165.85L259.29 173.15C259.96 173.435 260.679 173.586 261.407 173.593C262.135 173.6 262.857 173.464 263.532 173.192C264.207 172.92 264.822 172.517 265.342 172.007C265.861 171.497 266.275 170.89 266.56 170.22L285.5 125.76C286.077 124.409 286.093 122.884 285.546 121.52C284.998 120.157 283.931 119.067 282.58 118.49Z" fill="#ACD1B8"/>
<path d="M265.4 111.155L242.135 165.831L255.349 171.454L278.614 116.778L265.4 111.155Z" fill="#99BAA3"/>
<path d="M294.266 23.6947L271.164 13.8552L253.151 56.1488L276.253 65.9883L294.266 23.6947Z" fill="#83B295"/>
<path d="M282.094 52.2827L258.992 42.4432L253.154 56.1516L276.255 65.9911L282.094 52.2827Z" fill="#548769"/>
<path d="M295.879 22.3613L271.011 11.7695C270.213 11.4297 269.291 11.8009 268.951 12.5987L268.669 13.2611C268.329 14.0588 268.7 14.981 269.498 15.3208L294.366 25.9126C295.164 26.2524 296.086 25.8811 296.426 25.0834L296.708 24.421C297.048 23.6232 296.677 22.7011 295.879 22.3613Z" fill="#2C6E49"/>
<path d="M178.27 219.856L171.801 215.754L169.895 218.761L176.364 222.862L178.27 219.856Z" fill="#C2B280"/>
<path d="M182.747 211.55L174.499 206.247L167.981 216.386L176.23 221.689L182.747 211.55Z" fill="#83B295"/>
<path d="M181.528 216.72L173.234 211.463L172.292 212.95L180.586 218.207L181.528 216.72Z" fill="#C2B280"/>
<path d="M184.81 213.68L174.59 207.2L178.02 201.82L188.24 208.3L184.81 213.68Z" fill="#C2B280"/>
<path d="M208.954 236.767L216.394 238.59L217.241 235.133L209.802 233.31L208.954 236.767Z" fill="#C2B280"/>
<path d="M208.36 234.656L217.898 236.993L220.771 225.27L211.233 222.933L208.36 234.656Z" fill="#83B295"/>
<path d="M209.388 230.478L218.925 232.815L219.344 231.106L209.806 228.768L209.388 230.478Z" fill="#C2B280"/>
<path d="M209.74 224.3L221.5 227.18L223 220.98L211.24 218.09L209.74 224.3Z" fill="#C2B280"/>
<path d="M197.708 229.353L190.661 226.352L189.266 229.627L196.313 232.628L197.708 229.353Z" fill="#C2B280"/>
<path d="M202.79 220.189L193.755 216.341L189.025 227.445L198.06 231.294L202.79 220.189Z" fill="#83B295"/>
<path d="M200.429 225.711L191.394 221.862L190.705 223.482L199.739 227.33L200.429 225.711Z" fill="#C2B280"/>
<path d="M206.232 215.026L195.09 210.281L192.038 217.448L203.179 222.193L206.232 215.026Z" fill="#C2B280"/>
<path d="M175.332 193.884L230.865 217.536L228.745 222.514C228.338 223.468 227.57 224.221 226.608 224.608C225.646 224.996 224.569 224.985 223.615 224.579L175.286 203.995C174.332 203.588 173.579 202.819 173.191 201.857C172.804 200.896 172.815 199.819 173.221 198.865L175.341 193.888L175.332 193.884Z" fill="#548769"/>
<path d="M283.118 88.5675L232.111 66.843L178.729 192.178L229.735 213.903L283.118 88.5675Z" fill="#FEFEFE"/>
<path d="M235.179 68.1434L232.106 66.8346L178.723 192.17L181.796 193.479L235.179 68.1434Z" fill="#ACD1B8"/>
<path d="M283.125 88.5619L269.049 82.5665L215.667 207.902L229.743 213.897L283.125 88.5619Z" fill="#ACD1B8"/>
<path d="M279.71 86.86L235.71 68.12L249.35 51.74C249.793 51.2096 250.395 50.8358 251.066 50.6737C251.738 50.5116 252.444 50.5699 253.08 50.84L280.14 62.37C280.776 62.6406 281.307 63.1084 281.657 63.7045C282.006 64.3005 282.154 64.9931 282.08 65.68L279.71 86.86Z" fill="#ACD1B8"/>
<path d="M235.7 68.12L279.71 86.86L280.99 75.3L243.15 59.18L235.7 68.12Z" fill="#99BAA3"/>
<path d="M286.64 85.83L231.64 62.4C231.254 62.2237 230.836 62.1265 230.412 62.1141C229.988 62.1018 229.565 62.1745 229.169 62.3281C228.774 62.4816 228.412 62.7128 228.107 63.0081C227.802 63.3034 227.56 63.6568 227.393 64.0474C227.227 64.438 227.141 64.8579 227.139 65.2824C227.138 65.707 227.222 66.1275 227.385 66.5191C227.549 66.9108 227.79 67.2658 228.093 67.563C228.396 67.8603 228.755 68.0939 229.15 68.25L284.15 91.67C284.533 91.8335 284.945 91.9198 285.362 91.9241C285.779 91.9285 286.193 91.8506 286.579 91.6951C286.966 91.5395 287.319 91.3093 287.616 91.0176C287.914 90.7259 288.152 90.3784 288.315 89.995C288.478 89.6115 288.565 89.1996 288.569 88.7828C288.573 88.3659 288.496 87.9523 288.34 87.5656C288.185 87.1788 287.954 86.8265 287.663 86.5287C287.371 86.2309 287.023 85.9935 286.64 85.83Z" fill="#83B295"/>
<path d="M234.78 213.44L175.56 188.21C175.17 188.004 174.741 187.881 174.301 187.849C173.861 187.818 173.419 187.877 173.003 188.025C172.587 188.173 172.206 188.405 171.885 188.708C171.564 189.01 171.308 189.376 171.136 189.782C170.963 190.188 170.876 190.625 170.881 191.066C170.886 191.508 170.982 191.943 171.164 192.345C171.346 192.747 171.609 193.107 171.937 193.403C172.265 193.698 172.651 193.922 173.07 194.06L232.29 219.29C232.68 219.496 233.109 219.619 233.549 219.651C233.989 219.682 234.431 219.623 234.847 219.475C235.263 219.327 235.644 219.095 235.965 218.792C236.286 218.49 236.542 218.124 236.714 217.718C236.887 217.312 236.974 216.875 236.969 216.433C236.964 215.992 236.868 215.557 236.686 215.155C236.504 214.753 236.241 214.393 235.913 214.097C235.585 213.802 235.199 213.578 234.78 213.44Z" fill="#83B295"/>
<path d="M256.879 150.172L205.873 128.448L204.967 130.573L255.974 152.298L256.879 150.172Z" fill="#83B295"/>
<path d="M220 279.09H114.28C112.261 279.162 110.349 280.015 108.946 281.469C107.543 282.923 106.759 284.865 106.759 286.885C106.759 288.905 107.543 290.847 108.946 292.301C110.349 293.755 112.261 294.608 114.28 294.68H220C222.019 294.608 223.931 293.755 225.334 292.301C226.737 290.847 227.521 288.905 227.521 286.885C227.521 284.865 226.737 282.923 225.334 281.469C223.931 280.015 222.019 279.162 220 279.09Z" fill="#83B295"/>
<path d="M304.85 393.68H116.85C115.492 393.676 114.146 393.94 112.89 394.457C111.634 394.973 110.492 395.733 109.53 396.691C108.567 397.65 107.804 398.789 107.282 400.043C106.76 401.297 106.491 402.642 106.49 404H315.19C315.185 401.261 314.093 398.636 312.154 396.701C310.216 394.767 307.589 393.68 304.85 393.68Z" fill="#014928"/>
<path d="M220 294.68H164.62C166.074 296.995 168.092 298.904 170.484 300.228C172.877 301.552 175.566 302.248 178.3 302.25H181.4C182.716 302.25 183.988 302.726 184.98 303.59H228.79L220 294.68Z" fill="#99BAA3"/>
<path d="M359.65 452.22C376.705 452.22 390.53 450.734 390.53 448.9C390.53 447.066 376.705 445.58 359.65 445.58C342.595 445.58 328.77 447.066 328.77 448.9C328.77 450.734 342.595 452.22 359.65 452.22Z" fill="#2C6E49"/>
<path d="M379.26 446.26C379.56 447.42 379.53 448.76 377.12 448.93C375.4 449.111 373.661 448.864 372.06 448.21C369.79 447.21 368.62 446.21 368.99 445.92C371.1 443 379.26 446.26 379.26 446.26Z" fill="#231D3A"/>
<path d="M372.4 445C373.97 448.21 379.73 447.4 379.64 446.65C379.64 446.65 379.4 388.73 377.26 368.95C370.05 371.64 361.26 375.26 361.26 375.26C361.26 375.26 367.76 418.24 372.4 445Z" fill="#2B2B2B"/>
<path d="M377.26 368.94C377.95 375.05 377.49 385.05 361.15 386.43C345.86 387.71 349 367.26 349 367.26L377.26 368.94Z" fill="#333333"/>
<path d="M353.39 446.59L350.51 442.72L349.87 446.19L348.1 446.6C347.61 446.6 343.29 447.23 343.03 447.6C342.77 447.97 342.46 448.6 342.72 448.95C342.98 449.3 351.17 450.25 352.85 449.79C353.13 449.7 353.38 449.65 353.43 449.07C353.48 448.49 353.39 446.59 353.39 446.59Z" fill="#231D3A"/>
<path d="M348.26 367.58C348.26 367.58 347.26 438.46 347.72 446.64C348.72 447.46 352.32 447.32 353.72 446.64C355.91 438.17 367.41 372.54 367.41 372.54L348.26 367.58Z" fill="#333333"/>
<path d="M347.24 327.53C350.86 318.9 364.31 322.74 370.93 329.37C371.09 346.96 378.27 370.03 378.27 370.03C378.27 370.03 367.12 374.64 347.53 367.96C347.53 368 342.32 339.25 347.24 327.53Z" fill="white"/>
<path d="M303.66 307C306.51 307.47 308.88 308.51 309.98 307.31C311.08 306.11 305.24 301.22 303.98 300.31C302.72 299.4 300.74 300.6 300.45 304.19C300.36 305.54 301.32 306.58 303.66 307Z" fill="#DD9C97"/>
<path d="M305.29 309.16C307.16 311.64 332.18 326.43 344.45 333.49C345.2 333.921 346.038 334.177 346.901 334.237C347.764 334.298 348.63 334.161 349.433 333.839C350.236 333.516 350.955 333.016 351.537 332.375C352.118 331.735 352.547 330.97 352.79 330.14C353.175 328.824 353.075 327.414 352.508 326.166C351.941 324.918 350.944 323.915 349.7 323.34C341.78 319.69 324.56 311.66 308.15 303.48C306.77 304 304.58 306.83 305.29 309.16Z" fill="white"/>
<path d="M402.49 365.31C401.72 364.36 401.2 362.55 401.59 362.22C401.98 361.89 403.18 363.17 403.95 364.12C404.72 365.07 404.69 366.04 404.29 366.36C403.89 366.68 403.25 366.26 402.49 365.31Z" fill="#DD9C97"/>
<path d="M402.28 364.22C400.76 361.77 398.89 359.97 399.59 358.5C400.29 357.03 406.59 360.81 408.32 361.36C409.74 361.83 409.32 364.47 406.09 366.09C404.86 366.72 403.52 366.22 402.28 364.22Z" fill="#DD9C97"/>
<path d="M400.42 363.52C385.36 357.35 367.57 341.37 362.23 337.52L370.93 329.41C370.93 329.41 377.93 337.29 384.14 343.15C387.56 346.38 395.23 353.32 403.06 357.96C403.33 358.12 403.65 358.18 403.8 358.78C404.28 360.64 402.4 362.58 400.42 363.52Z" fill="white"/>
<path d="M348.53 310C348.53 315.79 353.53 322.64 359.66 322.64C365.79 322.64 370.79 315.79 370.79 310C370.79 304.21 370 299.9 359.66 299.9C349.32 299.9 348.53 304.16 348.53 310Z" fill="#2B2B2B"/>
<path d="M366.22 317.527C368.669 312.337 366.73 306.279 361.89 303.996C357.05 301.712 351.142 304.068 348.693 309.257C346.245 314.447 348.183 320.505 353.023 322.789C357.863 325.072 363.771 322.717 366.22 317.527Z" fill="#E9A890"/>
<path d="M359.16 315.65H356.89C355.415 315.65 354.22 316.845 354.22 318.32V325.7C354.22 327.175 355.415 328.37 356.89 328.37H359.16C360.635 328.37 361.83 327.175 361.83 325.7V318.32C361.83 316.845 360.635 315.65 359.16 315.65Z" fill="#E49B82"/>
<path d="M353.39 302C361.82 302 365.19 305 365.19 305L368.67 311.75L367.41 318.18C367.41 318.18 365.41 321.43 363.91 322.18C361.521 323.148 358.849 323.148 356.46 322.18C353.85 321.03 351.26 315.23 351.26 315.23L350.26 309.23C350.26 309.23 344.57 309.03 347.58 307.52C349.34 306.64 348.83 303.72 350.8 302C351.59 301.94 352.44 301.9 353.35 301.9L353.39 302Z" fill="#2B2B2B"/>
<path d="M351.977 312.084C352.081 310.35 351.306 308.892 350.246 308.829C349.185 308.765 348.241 310.119 348.137 311.853C348.033 313.588 348.808 315.045 349.869 315.109C350.929 315.172 351.873 313.818 351.977 312.084Z" fill="#E9A890"/>
<path d="M365.42 303C365.42 305.17 369.21 313.8 369.88 313.8C370.55 313.8 371.11 306.98 371.11 304.8C371.11 302.62 369.62 300.7 368.11 300.7C365.41 300.7 365.42 300.81 365.42 303Z" fill="#2B2B2B"/>
<path d="M349.57 303.78C349.57 304.49 355.57 304.55 359.5 304.55C363.43 304.55 366.62 304.19 366.62 301.32C366.62 298.45 363.44 298.1 359.5 298.1C352.25 298.1 349.57 303.08 349.57 303.78Z" fill="#2B2B2B"/>
<path d="M371 307.47C370.1 316.33 371.65 329.64 374.73 339.31C370.3 341.48 358.18 343.02 354.48 338.13C351.22 333.85 351.32 323.55 352.48 317.07C360.94 317.88 371 307.47 371 307.47Z" fill="#2B2B2B"/>
<path d="M299.79 298.51L304.36 301.89" stroke="#DD9C97" stroke-width="1.83" stroke-miterlimit="10" stroke-linecap="round"/>
<path d="M69.79 426.92C69.6241 426.921 69.4589 426.898 69.3 426.85C68.8692 426.718 68.5083 426.421 68.2964 426.024C68.0845 425.626 68.0391 425.161 68.17 424.73L109.82 287.32C109.886 287.107 109.993 286.908 110.135 286.736C110.277 286.564 110.452 286.422 110.65 286.317C110.847 286.213 111.063 286.148 111.285 286.127C111.507 286.106 111.732 286.129 111.945 286.195C112.158 286.261 112.357 286.368 112.529 286.51C112.701 286.652 112.843 286.827 112.948 287.025C113.052 287.222 113.117 287.438 113.138 287.66C113.159 287.882 113.136 288.107 113.07 288.32L71.42 425.72C71.3128 426.068 71.0965 426.373 70.803 426.589C70.5096 426.805 70.1544 426.921 69.79 426.92Z" fill="#005B34"/>
<path d="M112.39 426.92C112.125 426.921 111.863 426.859 111.626 426.74C111.389 426.621 111.183 426.448 111.026 426.235C110.868 426.022 110.763 425.774 110.718 425.513C110.674 425.252 110.692 424.983 110.77 424.73L152.42 287.32C152.553 286.889 152.851 286.528 153.25 286.317C153.648 286.106 154.114 286.062 154.545 286.195C154.976 286.328 155.337 286.626 155.548 287.024C155.759 287.423 155.803 287.889 155.67 288.32L114 425.72C113.894 426.065 113.681 426.367 113.391 426.583C113.102 426.799 112.751 426.917 112.39 426.92Z" fill="#005B34"/>
<path d="M149.13 303.93H107.44C107.206 303.948 106.972 303.917 106.751 303.84C106.529 303.763 106.326 303.641 106.155 303.482C105.983 303.323 105.846 303.13 105.752 302.916C105.658 302.701 105.61 302.469 105.61 302.235C105.61 302.001 105.658 301.769 105.752 301.554C105.846 301.34 105.983 301.147 106.155 300.988C106.326 300.829 106.529 300.707 106.751 300.63C106.972 300.553 107.206 300.522 107.44 300.54H149.13C149.364 300.522 149.598 300.553 149.819 300.63C150.041 300.707 150.244 300.829 150.415 300.988C150.587 301.147 150.724 301.34 150.818 301.554C150.912 301.769 150.96 302.001 150.96 302.235C150.96 302.469 150.912 302.701 150.818 302.916C150.724 303.13 150.587 303.323 150.415 303.482C150.244 303.641 150.041 303.763 149.819 303.84C149.598 303.917 149.364 303.948 149.13 303.93Z" fill="#005B34"/>
<path d="M141.42 329.4H99.73C99.4965 329.418 99.2617 329.387 99.0406 329.31C98.8194 329.233 98.6165 329.111 98.4446 328.952C98.2728 328.793 98.1357 328.6 98.0419 328.386C97.9481 328.171 97.8997 327.939 97.8997 327.705C97.8997 327.471 97.9481 327.239 98.0419 327.024C98.1357 326.81 98.2728 326.617 98.4446 326.458C98.6165 326.299 98.8194 326.177 99.0406 326.1C99.2617 326.023 99.4965 325.992 99.73 326.01H141.42C141.654 325.992 141.888 326.023 142.109 326.1C142.331 326.177 142.534 326.299 142.705 326.458C142.877 326.617 143.014 326.81 143.108 327.024C143.202 327.239 143.25 327.471 143.25 327.705C143.25 327.939 143.202 328.171 143.108 328.386C143.014 328.6 142.877 328.793 142.705 328.952C142.534 329.111 142.331 329.233 142.109 329.31C141.888 329.387 141.654 329.418 141.42 329.4Z" fill="#005B34"/>
<path d="M133.71 354.87H92C91.7665 354.888 91.5317 354.857 91.3105 354.78C91.0894 354.703 90.8865 354.581 90.7146 354.422C90.5428 354.263 90.4056 354.07 90.3119 353.856C90.2181 353.641 90.1697 353.409 90.1697 353.175C90.1697 352.941 90.2181 352.709 90.3119 352.494C90.4056 352.28 90.5428 352.087 90.7146 351.928C90.8865 351.769 91.0894 351.647 91.3105 351.57C91.5317 351.493 91.7665 351.462 92 351.48H133.69C133.924 351.462 134.158 351.493 134.379 351.57C134.601 351.647 134.804 351.769 134.975 351.928C135.147 352.087 135.284 352.28 135.378 352.494C135.472 352.709 135.52 352.941 135.52 353.175C135.52 353.409 135.472 353.641 135.378 353.856C135.284 354.07 135.147 354.263 134.975 354.422C134.804 354.581 134.601 354.703 134.379 354.78C134.158 354.857 133.924 354.888 133.69 354.87H133.71Z" fill="#005B34"/>
<path d="M126 380.34H84.31C84.0765 380.358 83.8417 380.327 83.6205 380.25C83.3993 380.173 83.1965 380.051 83.0246 379.892C82.8528 379.733 82.7156 379.54 82.6219 379.326C82.5281 379.111 82.4797 378.879 82.4797 378.645C82.4797 378.411 82.5281 378.179 82.6219 377.964C82.7156 377.75 82.8528 377.557 83.0246 377.398C83.1965 377.239 83.3993 377.117 83.6205 377.04C83.8417 376.963 84.0765 376.932 84.31 376.95H126C126.234 376.932 126.468 376.963 126.689 377.04C126.911 377.117 127.114 377.239 127.285 377.398C127.457 377.557 127.594 377.75 127.688 377.964C127.782 378.179 127.83 378.411 127.83 378.645C127.83 378.879 127.782 379.111 127.688 379.326C127.594 379.54 127.457 379.733 127.285 379.892C127.114 380.051 126.911 380.173 126.689 380.25C126.468 380.327 126.234 380.358 126 380.34Z" fill="#005B34"/>
<path d="M118.29 405.81H76.6C76.3665 405.828 76.1317 405.797 75.9105 405.72C75.6894 405.643 75.4865 405.521 75.3146 405.362C75.1428 405.203 75.0056 405.01 74.9119 404.796C74.8181 404.581 74.7697 404.349 74.7697 404.115C74.7697 403.881 74.8181 403.649 74.9119 403.434C75.0056 403.22 75.1428 403.027 75.3146 402.868C75.4865 402.709 75.6894 402.587 75.9105 402.51C76.1317 402.433 76.3665 402.402 76.6 402.42H118.29C118.524 402.402 118.758 402.433 118.979 402.51C119.201 402.587 119.404 402.709 119.575 402.868C119.747 403.027 119.884 403.22 119.978 403.434C120.072 403.649 120.12 403.881 120.12 404.115C120.12 404.349 120.072 404.581 119.978 404.796C119.884 405.01 119.747 405.203 119.575 405.362C119.404 405.521 119.201 405.643 118.979 405.72C118.758 405.797 118.524 405.828 118.29 405.81Z" fill="#005B34"/>
<path d="M102.69 349.65C103.55 350.28 106.5 350.37 106.54 351.45H97.6C97.6122 350.47 97.8374 349.504 98.26 348.62L102.69 349.65Z" fill="#1F2F38"/>
<path d="M128.36 349.37C129.22 350 132.82 350.37 132.87 351.45H123.87C123.882 350.47 124.107 349.504 124.53 348.62L128.36 349.37Z" fill="#1F2F38"/>
<path d="M97.93 348.91C99.21 342.26 105.15 324.97 105.37 319.09C105.7 310.3 106.3 293.36 106.3 293.36C106.3 293.36 117.17 290.91 123.13 296.52C123.13 296.52 116.28 321.98 114.89 324.64C108.81 336.36 102.69 349.64 102.69 349.64C101 350.5 98.33 349.73 97.93 348.91Z" fill="#212121"/>
<path d="M106.3 293.36C105.37 301.36 109.11 304.94 115.05 309.89C124.25 317.56 128.21 320.62 132.35 322.68C136.49 324.74 139.88 319.56 137.78 315.29C134.47 308.6 126.64 293.65 126.64 293.65C126.64 293.65 108.19 277.13 106.3 293.36Z" fill="#212121"/>
<path d="M128.9 316.18L124.15 349.3C125.637 349.613 127.168 349.654 128.67 349.42C132.26 337.92 138.96 319.7 138.31 318.42C136.85 315.43 128.9 316.18 128.9 316.18Z" fill="#212121"/>
<path d="M123.35 257.08L123.87 260.42C123.87 260.42 118.96 260.59 117.56 258.66L117.74 254.8L123.35 257.08Z" fill="#DCBEA7"/>
<path d="M117.74 254.8L123.34 257.08L123.61 258.76C121.552 258.092 119.563 257.228 117.67 256.18L117.74 254.8Z" fill="#BD987C"/>
<path d="M124.06 261.2C124.06 261.2 123.72 270.73 127.98 292.85C130.256 299.016 132.929 305.028 135.98 310.85C128.1 312.3 120.25 322.73 110.04 322.77C108.97 319.22 108.45 309.82 108.45 309.82C108.45 309.82 107.32 319.04 106.45 321.82C105.32 321.82 103.53 321.91 103.32 320.66C103.32 320.66 104.54 297.85 108.25 278.88C110.34 268.2 113.97 259.98 117.36 257.42C117.38 257.43 122.79 258.94 124.06 261.2Z" fill="white"/>
<path d="M116.91 263.32C114.16 265.23 114.96 269.83 115.91 272.03C116.86 274.23 121.96 283.83 127.38 289.52C125.58 279.63 124.75 272.52 124.38 267.93C124.31 267.82 124.24 267.72 124.19 267.63C122.33 264.79 120.52 260.8 116.91 263.32Z" fill="#E4E4E4"/>
<path d="M117.57 256.69C117.149 257.181 116.774 257.71 116.45 258.27C119.45 260.48 122.89 261.97 124.58 262.04C124.452 261.376 124.216 260.737 123.88 260.15C123.88 260.15 118.85 258.07 117.57 256.69Z" fill="#E4E4E4"/>
<path d="M117.5 254.88C117.5 254.88 128.08 261.01 130.83 258.39C131.24 258 132.18 254.67 132.73 252.26C133.53 248.7 133.98 244.05 133.07 240.98C131.56 235.92 125.5 228.98 120.64 230.8C115.78 232.62 104.94 239.66 117.5 254.88Z" fill="#DCBEA7"/>
<path d="M131.17 245.32L131.41 244.67C132.78 246.013 134.269 247.228 135.86 248.3C132.94 251.3 129.86 248.72 130.46 245.17C130.712 245.178 130.96 245.236 131.19 245.34C131.34 245.41 131.32 245.38 131.17 245.32Z" fill="#DCBEA7"/>
<path d="M133.78 232.51V232.57C133.786 232.55 133.786 232.53 133.78 232.51Z" fill="#805936"/>
<path d="M119.59 247.51C119.2 249.97 118.72 254.97 116.95 255.85C114.256 253.57 111.949 250.868 110.12 247.85C108.62 245.1 107.12 239.29 111.05 235.53C114.75 231.38 117.2 230.39 119.35 230.2C121.545 230.104 123.742 230.289 125.89 230.75C132.18 231.99 131.89 238.19 131.89 238.19C130.51 239.34 126.06 236.76 125.09 238.58C124.12 240.4 124.34 242.75 123.56 244.72C122.83 246.39 120.62 245.36 119.59 247.51Z" fill="#381C14"/>
<path d="M118.88 246.41C119.44 248.03 121.25 249.71 122.32 249.34C123.39 248.97 123.79 247.34 123.23 245.75C122.67 244.16 121.4 242.1 120.02 242.67C119 243.1 118.32 244.79 118.88 246.41Z" fill="#DCBEA7"/>
<path d="M132.06 242C132.2 242.73 132.63 245.39 130.55 245.67C128.47 245.95 128.92 242.67 128.92 242.67C128.92 242.67 131.12 242.1 132.06 242Z" fill="url(#paint0_linear_10_2590)"/>
<path d="M131.57 241.81C129.32 241.86 127.76 243.05 129.82 242.87C131.88 242.69 132.75 241.78 131.57 241.81Z" fill="#6D2A2B"/>
<path d="M129.88 245.43C130.43 244.21 131.75 244.6 131.76 245.62" stroke="#452F20" stroke-width="0.36" stroke-miterlimit="10"/>
<path d="M126.78 251.19C126.689 251.379 126.641 251.585 126.641 251.795C126.641 252.005 126.689 252.211 126.78 252.4C126.917 252.805 127.18 253.155 127.53 253.4C128.259 253.843 129.073 254.126 129.92 254.23H129.26L128.61 254.14C128.169 254.041 127.75 253.865 127.37 253.62C126.994 253.349 126.717 252.963 126.58 252.52C126.492 252.301 126.464 252.062 126.499 251.828C126.535 251.594 126.631 251.374 126.78 251.19Z" fill="#936053"/>
<path d="M111.49 235.47C111.61 233.67 113.71 228.29 122.99 227.68C132.27 227.07 132.77 236.68 138.63 238.2C132.69 241.31 129.43 238.86 127.77 238.62C128.68 239.86 127.5 239.02 126.42 238.37C127.13 240.5 125.31 243.27 123.51 244.7C122.51 242.14 115.92 237.41 115.92 237.41C115.92 237.41 112.34 237.23 111.49 235.47Z" fill="#381C14"/>
<path d="M151.36 277.44C151.36 277.44 153.75 273.02 154.45 273.18C155.15 273.34 154.31 275.47 154.31 275.47C154.31 275.47 161.17 276.94 161.36 277.64C161.55 278.34 152.8 279.52 152.8 279.52L151.36 277.44Z" fill="#DCBEA7"/>
<path d="M116.73 269.94C116.73 269.94 124.82 284.51 130.5 288.94C136.18 293.37 152.8 279.48 152.8 279.48L151.35 276.7L136.35 281.14C136.35 281.14 127.2 268.07 125.35 265.22C123.5 262.37 121.24 260.22 117.47 262.49C113.7 264.76 116.73 269.94 116.73 269.94Z" fill="white"/>
<path d="M371.67 122.58C386.554 122.58 398.62 110.514 398.62 95.63C398.62 80.7459 386.554 68.68 371.67 68.68C356.786 68.68 344.72 80.7459 344.72 95.63C344.72 110.514 356.786 122.58 371.67 122.58Z" fill="white"/>
<path d="M371.67 127.7C389.382 127.7 403.74 113.342 403.74 95.63C403.74 77.9182 389.382 63.56 371.67 63.56C353.958 63.56 339.6 77.9182 339.6 95.63C339.6 113.342 353.958 127.7 371.67 127.7Z" stroke="white" stroke-width="1.35" stroke-miterlimit="10"/>
<path d="M375.78 89.86H368.17L364.37 96.45L368.17 103.03H375.78L379.58 96.45L375.78 89.86Z" fill="#548769"/>
<path d="M367.01 77.3H361.09L358.12 82.43L361.09 87.56H367.01L369.98 82.43L367.01 77.3Z" fill="#548769"/>
<path d="M381.68 106.48H377.35L375.19 110.22L377.35 113.96H381.68L383.84 110.22L381.68 106.48Z" fill="#548769"/>
<path d="M365.28 107.31H362.03L360.41 110.13L362.03 112.94H365.28L366.91 110.13L365.28 107.31Z" fill="#548769"/>
<path d="M382.08 79.57H378.83L377.2 82.39L378.83 85.2H382.08L383.71 82.39L382.08 79.57Z" fill="#548769"/>
<path d="M367.014 86.9597L366.559 87.1901L368.095 90.2233L368.55 89.9929L367.014 86.9597Z" fill="#548769"/>
<path d="M368.199 102.48L364.641 107.836L365.066 108.118L368.624 102.763L368.199 102.48Z" fill="#548769"/>
<path d="M378.819 84.8695L375.26 90.2252L375.685 90.5074L379.243 85.1517L378.819 84.8695Z" fill="#548769"/>
<path d="M375.831 102.619L375.371 102.841L377.355 106.958L377.814 106.736L375.831 102.619Z" fill="#548769"/>
<path d="M80.983 192.648C94.7774 187.058 101.428 171.344 95.8382 157.55C90.2481 143.755 74.5338 137.104 60.7394 142.694C46.9449 148.285 40.294 163.999 45.8841 177.793C51.4743 191.588 67.1885 198.239 80.983 192.648Z" fill="white"/>
<path d="M102.923 172.879C105.796 155.178 93.7757 138.499 76.0747 135.626C58.3737 132.752 41.6949 144.773 38.8217 162.474C35.9484 180.175 47.9686 196.853 65.6696 199.727C83.3706 202.6 100.049 190.58 102.923 172.879Z" stroke="white" stroke-width="1.13" stroke-miterlimit="10"/>
<path d="M74.97 161.89H67.37L63.56 168.48L67.37 175.06H74.97L78.78 168.48L74.97 161.89Z" fill="#548769"/>
<path d="M57.64 163.29H51.71L48.75 168.43L51.71 173.56H57.64L60.61 168.43L57.64 163.29Z" fill="#548769"/>
<path d="M80.87 178.51H76.55L74.39 182.25L76.55 186H80.87L83.03 182.25L80.87 178.51Z" fill="#548769"/>
<path d="M66.15 153.71H62.9L61.28 156.52L62.9 159.34H66.15L67.78 156.52L66.15 153.71Z" fill="#548769"/>
<path d="M85.76 165.69H82.51L80.88 168.5L82.51 171.32H85.76L87.39 168.5L85.76 165.69Z" fill="#548769"/>
<path d="M168.761 155.195C169.697 147.487 164.206 140.479 156.498 139.544C148.789 138.608 141.782 144.099 140.846 151.807C139.911 159.516 145.401 166.523 153.11 167.459C160.818 168.395 167.826 162.904 168.761 155.195Z" fill="white"/>
<path d="M171.627 155.485C172.727 146.189 166.083 137.761 156.787 136.66C147.49 135.56 139.062 142.204 137.962 151.501C136.862 160.797 143.506 169.225 152.802 170.325C162.099 171.426 170.527 164.781 171.627 155.485Z" stroke="white" stroke-width="0.59" stroke-miterlimit="10"/>
<path d="M154.97 157.18L158.09 154.73L157.53 150.8L153.85 149.32L150.72 151.78L151.29 155.71L154.97 157.18Z" fill="#548769"/>
<path d="M161.63 151.02L164.07 149.11L163.63 146.05L160.76 144.9L158.32 146.81L158.76 149.87L161.63 151.02Z" fill="#548769"/>
<path d="M147.19 152.27L148.97 150.87L148.65 148.64L146.55 147.8L144.78 149.19L145.1 151.43L147.19 152.27Z" fill="#548769"/>
<path d="M161.23 157.7L162.57 156.65L162.33 154.97L160.75 154.34L159.42 155.39L159.66 157.07L161.23 157.7Z" fill="#548769"/>
<path d="M149.32 159.11L150.66 158.06L150.41 156.38L148.84 155.75L147.5 156.79L147.75 158.47L149.32 159.11Z" fill="#548769"/>
<path d="M159.49 155.54L157.88 154.79L157.99 154.55L159.6 155.3L159.49 155.54Z" fill="#548769"/>
<path d="M150.83 151.97L148.69 150.92L148.81 150.68L150.95 151.73L150.83 151.97Z" fill="#548769"/>
<path d="M157.04 151.36L156.88 151.15L159.13 149.37L159.3 149.58L157.04 151.36Z" fill="#548769"/>
<path d="M149.46 157.31L149.3 157.1L151.56 155.33L151.72 155.54L149.46 157.31Z" fill="#548769"/>
<path d="M354.52 271.17C352.8 268.982 351.767 266.333 351.553 263.558C351.338 260.783 351.951 258.007 353.315 255.581C354.678 253.155 356.731 251.187 359.212 249.927C361.694 248.668 364.494 248.172 367.257 248.504C370.02 248.836 372.623 249.979 374.737 251.79C376.85 253.601 378.379 255.999 379.129 258.679C379.88 261.359 379.819 264.201 378.954 266.846C378.089 269.492 376.459 271.821 374.27 273.54C372.818 274.682 371.155 275.526 369.376 276.025C367.598 276.524 365.738 276.668 363.904 276.448C362.07 276.228 360.297 275.648 358.687 274.743C357.077 273.837 355.661 272.623 354.52 271.17Z" fill="white"/>
<path d="M382.412 264.531C383.54 255.238 376.92 246.79 367.627 245.662C358.334 244.534 349.887 251.153 348.759 260.446C347.631 269.739 354.25 278.187 363.543 279.315C372.836 280.443 381.284 273.824 382.412 264.531Z" stroke="white" stroke-width="0.59" stroke-miterlimit="10"/>
<path d="M365.76 266.17L368.88 263.72L368.31 259.79L364.63 258.31L361.51 260.76L362.07 264.69L365.76 266.17Z" fill="#548769"/>
<path d="M372.42 260.01L374.85 258.1L374.41 255.03L371.54 253.88L369.11 255.79L369.55 258.86L372.42 260.01Z" fill="#548769"/>
<path d="M357.98 261.25L359.75 259.86L359.43 257.62L357.34 256.78L355.56 258.18L355.88 260.41L357.98 261.25Z" fill="#548769"/>
<path d="M372.02 266.69L373.35 265.64L373.11 263.96L371.54 263.33L370.2 264.37L370.44 266.05L372.02 266.69Z" fill="#548769"/>
<path d="M360.11 268.09L361.44 267.04L361.2 265.36L359.62 264.73L358.29 265.78L358.53 267.46L360.11 268.09Z" fill="#548769"/>
<path d="M368.752 263.495L368.637 263.74L370.251 264.492L370.365 264.248L368.752 263.495Z" fill="#548769"/>
<path d="M361.62 260.95L359.47 259.9L359.59 259.66L361.74 260.71L361.62 260.95Z" fill="#548769"/>
<path d="M367.83 260.34L367.66 260.13L369.92 258.36L370.08 258.57L367.83 260.34Z" fill="#548769"/>
<path d="M362.345 264.346L360.09 266.12L360.257 266.333L362.512 264.558L362.345 264.346Z" fill="#548769"/>
<path d="M172.84 64.19C171.496 64.248 170.166 63.9064 169.016 63.2083C167.867 62.5102 166.95 61.487 166.383 60.268C165.815 59.049 165.621 57.689 165.826 56.3599C166.031 55.0308 166.625 53.7923 167.534 52.8011C168.443 51.8098 169.625 51.1103 170.931 50.7909C172.238 50.4715 173.609 50.5466 174.873 51.0067C176.137 51.4669 177.236 52.2913 178.031 53.3759C178.826 54.4605 179.281 55.7565 179.34 57.1C179.416 58.9015 178.774 60.6596 177.556 61.9888C176.337 63.3179 174.641 64.1095 172.84 64.19Z" fill="#548769"/>
<path d="M168.76 60.12L147.4 75.87" stroke="white" stroke-width="2.8" stroke-linecap="round" stroke-linejoin="round"/>
<path d="M159.163 88.5355C165.339 79.6322 163.129 67.4078 154.226 61.2314C145.322 55.055 133.098 57.2656 126.922 66.1688C120.745 75.072 122.956 87.2964 131.859 93.4728C140.762 99.6492 152.987 97.4387 159.163 88.5355Z" fill="#548769"/>
<path d="M114.81 45.59L132.81 65.09" stroke="white" stroke-width="2.8" stroke-linecap="round" stroke-linejoin="round"/>
<path d="M118.41 41.09C118.62 42.4212 118.43 43.7847 117.864 45.0079C117.299 46.231 116.383 47.2589 115.233 47.9613C114.083 48.6638 112.75 49.0092 111.404 48.9539C110.057 48.8986 108.757 48.4451 107.669 47.6507C106.58 46.8564 105.752 45.7569 105.288 44.4914C104.825 43.226 104.747 41.8515 105.065 40.542C105.384 39.2325 106.083 38.0468 107.075 37.135C108.068 36.2233 109.308 35.6264 110.64 35.42C111.522 35.2819 112.424 35.319 113.292 35.5293C114.16 35.7395 114.978 36.1187 115.7 36.6453C116.421 37.1718 117.032 37.8354 117.497 38.598C117.962 39.3607 118.272 40.2074 118.41 41.09Z" fill="#548769"/>
<path d="M154.53 106.42L148.74 91.43" stroke="white" stroke-width="2.8" stroke-linecap="round" stroke-linejoin="round"/>
<path d="M162.865 112.001C163.531 108.305 161.074 104.769 157.378 104.103C153.682 103.438 150.146 105.894 149.48 109.59C148.814 113.287 151.271 116.822 154.967 117.488C158.663 118.154 162.199 115.697 162.865 112.001Z" fill="#548769"/>
<path d="M392.58 178.19C392.626 178.724 392.512 179.26 392.253 179.729C391.994 180.198 391.602 180.58 391.126 180.827C390.65 181.073 390.111 181.173 389.579 181.113C389.046 181.054 388.543 180.838 388.133 180.492C387.723 180.147 387.425 179.687 387.276 179.173C387.128 178.658 387.135 178.11 387.297 177.599C387.46 177.088 387.77 176.637 388.189 176.303C388.607 175.968 389.116 175.765 389.65 175.72C390.365 175.662 391.075 175.889 391.624 176.351C392.173 176.814 392.516 177.475 392.58 178.19Z" fill="#548769"/>
<path d="M391.02 179.88L397.63 188.12" stroke="white" stroke-width="1.11" stroke-linecap="round" stroke-linejoin="round"/>
<path d="M396.77 182.17C398.286 181.869 399.856 182.024 401.284 182.616C402.711 183.207 403.931 184.209 404.789 185.495C405.647 186.78 406.104 188.291 406.103 189.836C406.102 191.381 405.642 192.891 404.782 194.175C403.923 195.459 402.701 196.459 401.273 197.049C399.845 197.639 398.274 197.791 396.758 197.488C395.243 197.184 393.852 196.438 392.761 195.344C391.67 194.249 390.929 192.856 390.63 191.34C390.429 190.335 390.429 189.299 390.629 188.294C390.829 187.288 391.226 186.332 391.796 185.48C392.367 184.628 393.1 183.897 393.953 183.329C394.807 182.761 395.764 182.367 396.77 182.17Z" fill="#548769"/>
<path d="M386.12 201.56L393.58 194.09" stroke="white" stroke-width="1.11" stroke-linecap="round" stroke-linejoin="round"/>
<path d="M384.27 200.21C384.796 200.105 385.341 200.159 385.837 200.364C386.332 200.57 386.755 200.917 387.053 201.363C387.351 201.809 387.51 202.334 387.509 202.87C387.509 203.406 387.349 203.93 387.051 204.376C386.752 204.822 386.328 205.169 385.833 205.373C385.337 205.578 384.792 205.63 384.266 205.525C383.74 205.419 383.257 205.16 382.879 204.78C382.5 204.4 382.243 203.916 382.14 203.39C382.07 203.041 382.07 202.682 382.139 202.333C382.209 201.985 382.346 201.653 382.544 201.357C382.742 201.062 382.996 200.808 383.293 200.612C383.589 200.415 383.921 200.278 384.27 200.21Z" fill="#548769"/>
<path d="M409.66 184.79L403.8 187.33" stroke="white" stroke-width="1.11" stroke-linecap="round" stroke-linejoin="round"/>
<path d="M410.88 186.73C410.355 186.632 409.871 186.382 409.489 186.009C409.107 185.637 408.844 185.159 408.733 184.637C408.622 184.116 408.668 183.572 408.865 183.077C409.063 182.581 409.403 182.155 409.842 181.852C410.282 181.549 410.801 181.384 411.334 181.376C411.868 181.368 412.392 181.518 412.84 181.808C413.288 182.098 413.64 182.514 413.852 183.004C414.064 183.493 414.126 184.035 414.03 184.56C413.966 184.91 413.834 185.243 413.641 185.542C413.448 185.84 413.198 186.097 412.906 186.299C412.613 186.501 412.283 186.642 411.936 186.716C411.588 186.79 411.229 186.795 410.88 186.73Z" fill="#548769"/>
<g style="mix-blend-mode:multiply" opacity="0.16">
<path d="M233.232 34.9785C234.585 29.5386 231.273 24.0317 225.833 22.6784C220.393 21.3251 214.886 24.6379 213.533 30.0778C212.179 35.5177 215.492 41.0247 220.932 42.378C226.372 43.7313 231.879 40.4184 233.232 34.9785Z" stroke="#4D6390" stroke-width="1.13" stroke-miterlimit="10"/>
<path d="M191.14 30.95C193.819 30.95 195.99 28.7786 195.99 26.1C195.99 23.4214 193.819 21.25 191.14 21.25C188.461 21.25 186.29 23.4214 186.29 26.1C186.29 28.7786 188.461 30.95 191.14 30.95Z" stroke="#4D6390" stroke-width="1.13" stroke-miterlimit="10"/>
<path d="M236.46 6.56998C236.46 7.69932 236.125 8.80329 235.498 9.74229C234.87 10.6813 233.978 11.4132 232.935 11.8453C231.892 12.2775 230.744 12.3906 229.636 12.1703C228.528 11.9499 227.511 11.4061 226.712 10.6076C225.914 9.80901 225.37 8.79158 225.15 7.68395C224.929 6.57632 225.042 5.42823 225.475 4.38486C225.907 3.3415 226.639 2.44972 227.578 1.82229C228.517 1.19487 229.621 0.859985 230.75 0.859985C232.264 0.859985 233.717 1.46157 234.788 2.53241C235.858 3.60324 236.46 5.0556 236.46 6.56998Z" stroke="#4D6390" stroke-width="1.13" stroke-miterlimit="10"/>
<path d="M229.59 12.13L227.11 22.96" stroke="#4D6390" stroke-width="1.13" stroke-miterlimit="10"/>
<path d="M195.6 28.13L213.19 30.52" stroke="#4D6390" stroke-width="1.13" stroke-miterlimit="10"/>
</g>
<g style="mix-blend-mode:multiply" opacity="0.16">
<path d="M413.787 276.284C418.5 273.249 419.861 266.968 416.826 262.255C413.791 257.542 407.51 256.181 402.797 259.216C398.084 262.251 396.723 268.532 399.758 273.245C402.793 277.958 409.074 279.319 413.787 276.284Z" stroke="#4D6390" stroke-width="1.13" stroke-miterlimit="10"/>
<path d="M393.81 243.63C393.122 244.295 392.252 244.741 391.311 244.912C390.369 245.083 389.398 244.971 388.52 244.59C387.642 244.21 386.897 243.577 386.379 242.773C385.86 241.969 385.591 241.029 385.607 240.072C385.622 239.116 385.921 238.185 386.465 237.398C387.009 236.611 387.774 236.002 388.664 235.65C389.554 235.298 390.528 235.217 391.463 235.418C392.399 235.619 393.254 236.093 393.92 236.78C394.363 237.237 394.712 237.776 394.946 238.368C395.18 238.96 395.296 239.592 395.285 240.228C395.275 240.864 395.14 241.492 394.887 242.076C394.633 242.66 394.268 243.188 393.81 243.63Z" stroke="#4D6390" stroke-width="1.13" stroke-miterlimit="10"/>
<path d="M436 259.08C435.189 259.866 434.164 260.394 433.053 260.597C431.943 260.8 430.797 260.669 429.761 260.222C428.724 259.774 427.844 259.029 427.231 258.081C426.618 257.133 426.3 256.024 426.316 254.895C426.333 253.766 426.684 252.668 427.325 251.738C427.966 250.809 428.868 250.09 429.917 249.674C430.966 249.257 432.116 249.16 433.22 249.396C434.324 249.632 435.333 250.19 436.12 251C437.174 252.088 437.753 253.55 437.731 255.065C437.708 256.58 437.086 258.024 436 259.08Z" stroke="#4D6390" stroke-width="1.13" stroke-miterlimit="10"/>
<path d="M427.25 258.03L417.74 263.79" stroke="#4D6390" stroke-width="1.13" stroke-miterlimit="10"/>
<path d="M392.09 244.77L402.63 259.06" stroke="#4D6390" stroke-width="1.13" stroke-miterlimit="10"/>
</g>
<g style="mix-blend-mode:multiply" opacity="0.16">
<path d="M63 234.9C64.9974 235.112 66.8871 235.911 68.4299 237.197C69.9727 238.483 71.0993 240.198 71.667 242.125C72.2347 244.051 72.2181 246.103 71.6192 248.02C71.0203 249.937 69.8661 251.634 68.3026 252.894C66.7391 254.155 64.8367 254.924 62.8362 255.103C60.8357 255.282 58.827 254.864 57.0644 253.901C55.3018 252.938 53.8645 251.473 52.9345 249.693C52.0045 247.913 51.6236 245.897 51.84 243.9C52.1296 241.228 53.4671 238.78 55.5592 237.093C57.6514 235.405 60.3273 234.617 63 234.9Z" stroke="#4D6390" stroke-width="1.13" stroke-miterlimit="10"/>
<path d="M52.66 271.59C53.6112 271.692 54.5109 272.074 55.2453 272.687C55.9798 273.3 56.5161 274.117 56.7865 275.034C57.0569 275.952 57.0493 276.929 56.7646 277.843C56.48 278.756 55.931 279.564 55.1872 280.166C54.4433 280.767 53.5378 281.135 52.5851 281.222C51.6324 281.309 50.6752 281.112 49.8345 280.656C48.9937 280.199 48.3071 279.504 47.8614 278.658C47.4156 277.811 47.2307 276.852 47.33 275.9C47.3961 275.267 47.5865 274.653 47.8904 274.093C48.1942 273.533 48.6054 273.039 49.1006 272.639C49.5957 272.239 50.165 271.94 50.7758 271.76C51.3866 271.58 52.0269 271.522 52.66 271.59Z" stroke="#4D6390" stroke-width="1.13" stroke-miterlimit="10"/>
<path d="M37.49 229.28C38.6129 229.399 39.6754 229.848 40.543 230.571C41.4107 231.294 42.0445 232.257 42.3645 233.34C42.6845 234.423 42.6762 235.577 42.3407 236.655C42.0053 237.733 41.3576 238.687 40.4797 239.398C39.6018 240.108 38.533 240.542 37.4085 240.645C36.284 240.747 35.1542 240.514 34.1621 239.975C33.1699 239.436 32.3599 238.615 31.8345 237.615C31.309 236.616 31.0917 235.483 31.21 234.36C31.2873 233.614 31.5113 232.89 31.8691 232.23C32.2269 231.57 32.7114 230.988 33.2949 230.516C33.8784 230.044 34.5493 229.691 35.2692 229.479C35.9891 229.267 36.7438 229.2 37.49 229.28Z" stroke="#4D6390" stroke-width="1.13" stroke-miterlimit="10"/>
<path d="M42.3 236.69L52.82 240.3" stroke="#4D6390" stroke-width="1.13" stroke-miterlimit="10"/>
<path d="M54.64 272.18L58.86 254.94" stroke="#4D6390" stroke-width="1.13" stroke-miterlimit="10"/>
<path d="M82.64 226.82C81.8956 226.215 81.3474 225.402 81.0648 224.485C80.7823 223.569 80.778 222.588 81.0525 221.669C81.327 220.75 81.868 219.933 82.6071 219.321C83.3462 218.709 84.2501 218.33 85.2045 218.232C86.1589 218.134 87.1209 218.322 87.9689 218.77C88.8168 219.219 89.5126 219.91 89.9681 220.754C90.4237 221.598 90.6185 222.559 90.5281 223.514C90.4377 224.469 90.066 225.376 89.46 226.12C89.0588 226.615 88.5639 227.025 88.0036 227.328C87.4434 227.631 86.8289 227.821 86.1953 227.886C85.5617 227.951 84.9216 227.89 84.3115 227.707C83.7014 227.524 83.1334 227.223 82.64 226.82Z" stroke="#4D6390" stroke-width="1.13" stroke-miterlimit="10"/>
<path d="M82.69 226.47L69.73 238.6" stroke="#4D6390" stroke-width="1.13" stroke-miterlimit="10"/>
</g>
<path d="M192.13 93.32C192.13 93.674 192.025 94.0201 191.828 94.3144C191.632 94.6088 191.352 94.8382 191.025 94.9737C190.698 95.1092 190.338 95.1446 189.991 95.0756C189.644 95.0065 189.325 94.836 189.074 94.5857C188.824 94.3354 188.653 94.0164 188.584 93.6692C188.515 93.322 188.551 92.962 188.686 92.635C188.822 92.3079 189.051 92.0283 189.346 91.8316C189.64 91.635 189.986 91.53 190.34 91.53C190.815 91.53 191.27 91.7186 191.606 92.0542C191.941 92.3899 192.13 92.8452 192.13 93.32Z" fill="#FEFEFE"/>
<path d="M122.16 124C122.16 124.757 121.935 125.498 121.515 126.128C121.094 126.758 120.496 127.249 119.796 127.538C119.096 127.828 118.326 127.904 117.583 127.756C116.84 127.609 116.157 127.244 115.622 126.708C115.086 126.173 114.721 125.49 114.574 124.747C114.426 124.004 114.502 123.234 114.792 122.534C115.081 121.834 115.572 121.236 116.202 120.815C116.832 120.395 117.573 120.17 118.33 120.17C119.346 120.17 120.32 120.573 121.038 121.292C121.756 122.01 122.16 122.984 122.16 124Z" fill="#FEFEFE"/>
<path d="M145.65 198C145.65 198.455 145.515 198.9 145.262 199.278C145.01 199.656 144.65 199.951 144.23 200.125C143.81 200.299 143.347 200.345 142.901 200.256C142.455 200.167 142.045 199.948 141.724 199.626C141.402 199.305 141.183 198.895 141.094 198.449C141.005 198.003 141.051 197.54 141.225 197.12C141.399 196.7 141.694 196.34 142.072 196.088C142.45 195.835 142.895 195.7 143.35 195.7C143.96 195.7 144.545 195.942 144.976 196.374C145.408 196.805 145.65 197.39 145.65 198Z" fill="#FEFEFE"/>
<path d="M94.07 242.71C94.072 243.015 93.9833 243.314 93.8153 243.568C93.6473 243.823 93.4075 244.022 93.1263 244.14C92.8451 244.258 92.5351 244.29 92.2357 244.232C91.9363 244.173 91.661 244.027 91.4446 243.812C91.2283 243.598 91.0806 243.323 91.0204 243.024C90.9601 242.725 90.99 242.415 91.1063 242.133C91.2225 241.851 91.4199 241.61 91.6734 241.44C91.9268 241.271 92.225 241.18 92.53 241.18C92.7318 241.179 92.9318 241.217 93.1186 241.294C93.3053 241.37 93.4752 241.482 93.6183 241.625C93.7615 241.767 93.8751 241.936 93.9526 242.122C94.0301 242.308 94.07 242.508 94.07 242.71Z" fill="#FEFEFE"/>
<path d="M74.66 282C74.66 282.506 74.5098 283.001 74.2285 283.422C73.9472 283.843 73.5474 284.171 73.0796 284.365C72.6119 284.559 72.0971 284.61 71.6006 284.511C71.104 284.412 70.6478 284.168 70.2898 283.81C69.9318 283.452 69.6879 282.996 69.5892 282.499C69.4904 282.003 69.5411 281.488 69.7349 281.02C69.9286 280.553 70.2567 280.153 70.6777 279.871C71.0987 279.59 71.5937 279.44 72.1 279.44C72.4365 279.439 72.77 279.504 73.0812 279.632C73.3924 279.76 73.6751 279.949 73.9131 280.187C74.1511 280.425 74.3396 280.708 74.4678 281.019C74.596 281.33 74.6613 281.663 74.66 282Z" fill="#FEFEFE"/>
<path d="M32.78 282.55C32.782 283.057 32.6335 283.553 32.3534 283.975C32.0734 284.397 31.6742 284.727 31.2066 284.922C30.739 285.118 30.224 285.17 29.7267 285.072C29.2295 284.974 28.7724 284.731 28.4134 284.374C28.0544 284.016 27.8096 283.56 27.71 283.063C27.6104 282.566 27.6605 282.051 27.8539 281.583C28.0474 281.114 28.3755 280.714 28.7967 280.432C29.2179 280.15 29.7133 280 30.22 280C30.8972 280 31.5469 280.268 32.0267 280.746C32.5065 281.224 32.7774 281.873 32.78 282.55Z" fill="#FEFEFE"/>
<path d="M50.91 324.94C52.4619 324.94 53.72 323.682 53.72 322.13C53.72 320.578 52.4619 319.32 50.91 319.32C49.3581 319.32 48.1 320.578 48.1 322.13C48.1 323.682 49.3581 324.94 50.91 324.94Z" fill="#FEFEFE"/>
<path d="M60.87 95.87C60.87 96.3249 60.7351 96.7696 60.4824 97.1478C60.2296 97.5261 59.8704 97.8209 59.4502 97.9949C59.0299 98.169 58.5674 98.2146 58.1213 98.1258C57.6751 98.0371 57.2653 97.818 56.9436 97.4964C56.622 97.1747 56.4029 96.7649 56.3142 96.3187C56.2254 95.8726 56.271 95.4101 56.4451 94.9898C56.6191 94.5696 56.9139 94.2104 57.2922 93.9576C57.6704 93.7049 58.1151 93.57 58.57 93.57C59.18 93.57 59.765 93.8123 60.1963 94.2437C60.6277 94.675 60.87 95.26 60.87 95.87Z" fill="#FEFEFE"/>
<path d="M93.56 65.74C93.56 65.9931 93.4849 66.2406 93.3443 66.4511C93.2036 66.6616 93.0037 66.8257 92.7698 66.9225C92.5359 67.0194 92.2786 67.0448 92.0303 66.9954C91.782 66.946 91.5539 66.8241 91.3749 66.6451C91.1959 66.466 91.074 66.238 91.0246 65.9897C90.9752 65.7414 91.0006 65.484 91.0974 65.2501C91.1943 65.0162 91.3584 64.8163 91.5689 64.6757C91.7794 64.535 92.0268 64.46 92.28 64.46C92.6195 64.46 92.945 64.5948 93.1851 64.8349C93.4251 65.0749 93.56 65.4005 93.56 65.74Z" fill="#FEFEFE"/>
<path d="M35.84 64.2C35.84 64.6549 35.7051 65.0995 35.4524 65.4778C35.1996 65.856 34.8404 66.1508 34.4202 66.3249C33.9999 66.499 33.5374 66.5445 33.0913 66.4558C32.6451 66.367 32.2353 66.148 31.9136 65.8263C31.592 65.5046 31.3729 65.0948 31.2842 64.6487C31.1954 64.2025 31.241 63.7401 31.4151 63.3198C31.5891 62.8995 31.8839 62.5403 32.2622 62.2876C32.6404 62.0349 33.0851 61.9 33.54 61.9C34.15 61.9 34.735 62.1423 35.1663 62.5736C35.5977 63.0049 35.84 63.59 35.84 64.2Z" fill="#FEFEFE"/>
<path d="M309.6 105.32C309.6 105.623 309.51 105.918 309.342 106.17C309.174 106.422 308.935 106.618 308.656 106.734C308.376 106.849 308.068 106.88 307.772 106.821C307.475 106.762 307.202 106.616 306.988 106.402C306.774 106.188 306.628 105.915 306.569 105.618C306.51 105.322 306.541 105.014 306.656 104.734C306.772 104.455 306.968 104.216 307.22 104.048C307.472 103.88 307.767 103.79 308.07 103.79C308.476 103.79 308.865 103.951 309.152 104.238C309.439 104.525 309.6 104.914 309.6 105.32Z" fill="#FEFEFE"/>
<path d="M310.11 77.23C310.108 77.5322 310.017 77.827 309.847 78.0773C309.678 78.3276 309.438 78.5221 309.159 78.6364C308.879 78.7507 308.572 78.7795 308.275 78.7194C307.979 78.6592 307.708 78.5127 307.495 78.2983C307.282 78.084 307.137 77.8113 307.079 77.5148C307.02 77.2183 307.051 76.9112 307.167 76.6322C307.284 76.3532 307.48 76.1149 307.731 75.9472C307.982 75.7795 308.278 75.69 308.58 75.69C308.782 75.69 308.982 75.7299 309.168 75.8074C309.354 75.8849 309.523 75.9985 309.665 76.1417C309.808 76.2848 309.92 76.4546 309.996 76.6414C310.073 76.8282 310.111 77.0282 310.11 77.23Z" fill="#FEFEFE"/>
<path d="M371.66 31.77C372.367 31.77 372.94 31.1969 372.94 30.49C372.94 29.783 372.367 29.21 371.66 29.21C370.953 29.21 370.38 29.783 370.38 30.49C370.38 31.1969 370.953 31.77 371.66 31.77Z" fill="#FEFEFE"/>
<path d="M348.93 157.16C348.93 157.716 348.765 158.259 348.456 158.721C348.148 159.183 347.709 159.543 347.195 159.756C346.682 159.969 346.117 160.024 345.572 159.916C345.027 159.808 344.526 159.54 344.133 159.147C343.74 158.754 343.472 158.253 343.364 157.708C343.256 157.163 343.311 156.598 343.524 156.085C343.737 155.571 344.097 155.132 344.559 154.824C345.021 154.515 345.564 154.35 346.12 154.35C346.865 154.35 347.58 154.646 348.107 155.173C348.634 155.7 348.93 156.415 348.93 157.16Z" fill="#FEFEFE"/>
<path d="M396.94 151.29C396.94 151.797 396.79 152.292 396.508 152.713C396.226 153.134 395.826 153.463 395.357 153.656C394.889 153.85 394.374 153.9 393.877 153.8C393.38 153.7 392.924 153.456 392.566 153.097C392.209 152.738 391.966 152.281 391.868 151.783C391.77 151.286 391.822 150.771 392.018 150.303C392.213 149.836 392.543 149.437 392.965 149.157C393.387 148.876 393.883 148.728 394.39 148.73C394.726 148.73 395.058 148.796 395.368 148.925C395.678 149.054 395.96 149.243 396.197 149.48C396.434 149.718 396.621 150.001 396.749 150.311C396.876 150.622 396.941 150.954 396.94 151.29Z" fill="#FEFEFE"/>
<path d="M371.92 226.11C371.92 226.565 371.785 227.01 371.532 227.388C371.28 227.766 370.92 228.061 370.5 228.235C370.08 228.409 369.617 228.455 369.171 228.366C368.725 228.277 368.315 228.058 367.994 227.736C367.672 227.415 367.453 227.005 367.364 226.559C367.275 226.113 367.321 225.65 367.495 225.23C367.669 224.81 367.964 224.45 368.342 224.198C368.72 223.945 369.165 223.81 369.62 223.81C370.23 223.81 370.815 224.052 371.246 224.484C371.678 224.915 371.92 225.5 371.92 226.11Z" fill="#FEFEFE"/>
<path d="M418.39 222.79C418.39 223.7 418.12 224.59 417.614 225.347C417.108 226.103 416.389 226.693 415.548 227.041C414.707 227.389 413.781 227.479 412.889 227.301C411.996 227.123 411.177 226.683 410.534 226.039C409.891 225.395 409.454 224.574 409.277 223.681C409.101 222.788 409.193 221.863 409.543 221.023C409.893 220.182 410.484 219.465 411.242 218.96C411.999 218.456 412.89 218.188 413.8 218.19C414.404 218.19 415.001 218.309 415.559 218.54C416.116 218.772 416.623 219.111 417.049 219.538C417.476 219.965 417.813 220.472 418.044 221.03C418.274 221.588 418.391 222.186 418.39 222.79Z" fill="#FEFEFE"/>
<path d="M401.54 301.44C402.667 301.44 403.58 300.527 403.58 299.4C403.58 298.273 402.667 297.36 401.54 297.36C400.413 297.36 399.5 298.273 399.5 299.4C399.5 300.527 400.413 301.44 401.54 301.44Z" fill="#FEFEFE"/>
<path d="M355.57 299.4C356.697 299.4 357.61 298.487 357.61 297.36C357.61 296.233 356.697 295.32 355.57 295.32C354.443 295.32 353.53 296.233 353.53 297.36C353.53 298.487 354.443 299.4 355.57 299.4Z" fill="#FEFEFE"/>
<path d="M334.12 363.5C334.122 363.854 334.019 364.201 333.823 364.497C333.628 364.793 333.349 365.024 333.022 365.161C332.695 365.298 332.335 365.335 331.987 365.267C331.639 365.199 331.319 365.029 331.068 364.779C330.817 364.529 330.645 364.21 330.575 363.863C330.505 363.515 330.54 363.155 330.675 362.827C330.811 362.5 331.04 362.219 331.335 362.022C331.629 361.825 331.976 361.72 332.33 361.72C332.803 361.72 333.257 361.907 333.592 362.241C333.928 362.574 334.117 363.027 334.12 363.5Z" fill="#FEFEFE"/>
<path d="M295.81 352C295.81 352.396 295.693 352.782 295.473 353.111C295.253 353.44 294.941 353.696 294.575 353.848C294.21 353.999 293.808 354.039 293.42 353.962C293.032 353.884 292.675 353.694 292.396 353.414C292.116 353.135 291.926 352.778 291.848 352.39C291.771 352.002 291.811 351.6 291.962 351.235C292.114 350.869 292.37 350.557 292.699 350.337C293.028 350.117 293.414 350 293.81 350C294.34 350 294.849 350.211 295.224 350.586C295.599 350.961 295.81 351.47 295.81 352Z" fill="#FEFEFE"/>
<path d="M205.92 365.8C206.483 365.8 206.94 365.343 206.94 364.78C206.94 364.217 206.483 363.76 205.92 363.76C205.357 363.76 204.9 364.217 204.9 364.78C204.9 365.343 205.357 365.8 205.92 365.8Z" fill="#FEFEFE"/>
<path d="M172.72 359.67C172.72 359.771 172.69 359.869 172.634 359.953C172.578 360.037 172.498 360.103 172.405 360.141C172.312 360.18 172.209 360.19 172.111 360.17C172.012 360.15 171.921 360.102 171.849 360.031C171.778 359.959 171.729 359.868 171.71 359.769C171.69 359.671 171.7 359.568 171.739 359.475C171.777 359.382 171.843 359.302 171.927 359.246C172.011 359.19 172.109 359.16 172.21 359.16C172.345 359.16 172.475 359.214 172.571 359.309C172.666 359.405 172.72 359.535 172.72 359.67Z" fill="#FEFEFE"/>
<path d="M148.72 380.36C148.712 381.015 148.511 381.653 148.141 382.193C147.772 382.734 147.25 383.153 146.643 383.399C146.036 383.644 145.37 383.704 144.728 383.571C144.087 383.439 143.499 383.119 143.039 382.654C142.578 382.188 142.266 381.596 142.141 380.953C142.016 380.31 142.084 379.645 142.337 379.04C142.589 378.436 143.015 377.92 143.56 377.557C144.105 377.194 144.745 377 145.4 377C145.839 377 146.274 377.087 146.68 377.257C147.085 377.426 147.453 377.674 147.762 377.987C148.071 378.299 148.314 378.67 148.479 379.077C148.643 379.485 148.725 379.921 148.72 380.36Z" fill="#FEFEFE"/>
<path d="M27.79 373.9C29.0106 373.9 30 372.911 30 371.69C30 370.469 29.0106 369.48 27.79 369.48C26.5695 369.48 25.58 370.469 25.58 371.69C25.58 372.911 26.5695 373.9 27.79 373.9Z" fill="#FEFEFE"/>
<path d="M442.64 334.63C443.861 334.63 444.85 333.641 444.85 332.42C444.85 331.199 443.861 330.21 442.64 330.21C441.419 330.21 440.43 331.199 440.43 332.42C440.43 333.641 441.419 334.63 442.64 334.63Z" fill="#FEFEFE"/>
<path d="M439.32 128.31C440.237 128.31 440.98 127.567 440.98 126.65C440.98 125.733 440.237 124.99 439.32 124.99C438.403 124.99 437.66 125.733 437.66 126.65C437.66 127.567 438.403 128.31 439.32 128.31Z" fill="#FEFEFE"/>
<path d="M444.02 43.13C444.782 43.13 445.4 42.5121 445.4 41.75C445.4 40.9878 444.782 40.37 444.02 40.37C443.258 40.37 442.64 40.9878 442.64 41.75C442.64 42.5121 443.258 43.13 444.02 43.13Z" fill="#FEFEFE"/>
<path d="M80.89 15.75C80.89 16.2424 80.744 16.7239 80.4704 17.1333C80.1968 17.5428 79.8079 17.862 79.3529 18.0504C78.8979 18.2389 78.3972 18.2882 77.9142 18.1921C77.4312 18.096 76.9875 17.8589 76.6393 17.5107C76.2911 17.1624 76.0539 16.7188 75.9579 16.2357C75.8618 15.7527 75.9111 15.2521 76.0995 14.7971C76.288 14.3421 76.6072 13.9532 77.0166 13.6796C77.4261 13.406 77.9075 13.26 78.4 13.26C78.7274 13.2586 79.0518 13.3221 79.3544 13.4468C79.6571 13.5715 79.9322 13.7548 80.1636 13.9863C80.3951 14.2178 80.5785 14.4928 80.7032 14.7955C80.8278 15.0982 80.8913 15.4226 80.89 15.75Z" fill="#FEFEFE"/>
<path d="M243.51 25.43C244.731 25.43 245.72 24.4406 245.72 23.22C245.72 21.9995 244.731 21.01 243.51 21.01C242.289 21.01 241.3 21.9995 241.3 23.22C241.3 24.4406 242.289 25.43 243.51 25.43Z" fill="#FEFEFE"/>
<path d="M15.35 196.9C17.0289 196.9 18.39 195.539 18.39 193.86C18.39 192.181 17.0289 190.82 15.35 190.82C13.671 190.82 12.31 192.181 12.31 193.86C12.31 195.539 13.671 196.9 15.35 196.9Z" fill="#FEFEFE"/>
<defs>
<linearGradient id="paint0_linear_10_2590" x1="128.516" y1="188.32" x2="128.904" y2="191.394" gradientUnits="userSpaceOnUse">
<stop stop-color="#B9906C"/>
<stop offset="1" stop-color="#B9906C" stop-opacity="0"/>
</linearGradient>
</defs>
</svg>
