<svg id="Layer_1" data-name="Layer 1" xmlns="http://www.w3.org/2000/svg" viewBox="0 0 1080 1080"><defs><style>.cls-1{fill:#6aa361;}.cls-2{fill:#90c185;}.cls-3{fill:#b9d6b2;}.cls-4{fill:#435b3d;}</style></defs><polygon class="cls-1" points="226.74 521.89 258.23 503.71 289.72 521.89 289.72 558.25 258.23 576.43 226.74 558.25 226.74 521.89"/><polygon class="cls-2" points="267.61 466.49 294.4 451.03 321.19 466.49 321.19 497.43 294.4 512.89 267.61 497.43 267.61 466.49"/><polygon class="cls-2" points="195.63 466.42 222.42 450.95 249.21 466.42 249.21 497.35 222.42 512.82 195.63 497.35 195.63 466.42"/><polygon class="cls-2" points="267.65 582.52 294.44 567.05 321.23 582.52 321.23 613.45 294.44 628.92 267.65 613.45 267.65 582.52"/><polygon class="cls-2" points="195.66 582.44 222.45 566.98 249.24 582.44 249.24 613.38 222.45 628.84 195.66 613.38 195.66 582.44"/><polygon class="cls-2" points="164.32 524.7 191.11 509.23 217.9 524.7 217.9 555.64 191.11 571.1 164.32 555.64 164.32 524.7"/><polygon class="cls-2" points="298.99 524.7 325.78 509.23 352.57 524.7 352.57 555.64 325.78 571.1 298.99 555.64 298.99 524.7"/><polygon class="cls-3" points="158.98 481.02 172.51 473.21 186.04 481.02 186.04 496.65 172.51 504.46 158.98 496.65 158.98 481.02"/><polygon class="cls-3" points="245.03 437.65 258.56 429.84 272.09 437.65 272.09 453.27 258.56 461.08 245.03 453.27 245.03 437.65"/><polygon class="cls-3" points="330.56 484.51 344.09 476.7 357.62 484.51 357.62 500.13 344.09 507.94 330.56 500.13 330.56 484.51"/><polygon class="cls-3" points="330.56 580.05 344.09 572.24 357.62 580.05 357.62 595.67 344.09 603.48 330.56 595.67 330.56 580.05"/><polygon class="cls-3" points="245.09 626.73 258.62 618.92 272.15 626.73 272.15 642.35 258.62 650.16 245.09 642.35 245.09 626.73"/><polygon class="cls-3" points="159.1 578.05 172.64 570.24 186.17 578.05 186.17 593.67 172.64 601.49 159.1 593.67 159.1 578.05"/><path class="cls-1" d="M444.83,556.14l-26.7-48.85c.5,7.22.6,14.24.6,19.18v29.67H403.2V487.91h19.88l27.49,50.23c-.4-7.12-.5-14.83-.5-19.87V487.91H465.5v68.23Z"/><path class="cls-1" d="M529,533.79H492c.89,10.09,5.24,13.05,11.07,13.05,5.44,0,9.1-3,10-7.91h15.32c-2.87,12.16-12.75,18.59-25.61,18.59-14.73,0-26.3-9-26.3-27.59,0-15.82,10.58-27.88,27.29-27.88s25.51,12.76,25.51,26.8C529.27,530.23,529.17,531.91,529,533.79ZM492.39,524h20.77c-.89-7.42-4.36-11.27-10.09-11.27C497.53,512.73,493.68,516.19,492.39,524Z"/><path class="cls-1" d="M592.65,529.74c0,16.41-10.38,27.78-27.78,27.78s-27.79-11.37-27.79-27.78,10.29-27.69,27.79-27.69S592.65,513.32,592.65,529.74Zm-16,0c0-11-4.45-17-11.76-17s-11.87,6-11.87,17,4.45,17.1,11.87,17.1S576.63,540.71,576.63,529.74Z"/><path class="cls-1" d="M700.33,556.14H679.76l-10.28-55.28-11,55.28H637.84L621,487.91h16.61l10.48,56.16L658.7,488.9h22L691,544.57l11.18-56.66h15.91Z"/><path class="cls-1" d="M775.67,529.74c0,16.41-10.38,27.78-27.78,27.78s-27.79-11.37-27.79-27.78,10.29-27.69,27.79-27.69S775.67,513.32,775.67,529.74Zm-16,0c0-11-4.45-17-11.77-17s-11.87,6-11.87,17,4.45,17.1,11.87,17.1S759.66,540.71,759.66,529.74Z"/><path class="cls-1" d="M819.47,502.45V515c-12.26-.79-17.5,4.16-17.5,19.09v22H786.45V503.43H802v10.09l4-7.32a14,14,0,0,1,9.59-4.15A21,21,0,0,1,819.47,502.45Z"/><path class="cls-1" d="M843.4,538.14c0,2.27,0,3.46.1,4.85.3,2.37,1.39,3.16,6,3v10.58a88.31,88.31,0,0,1-9.29.5c-7.42,0-11.77-2.87-12.16-9.79-.2-2.57-.2-5.14-.2-8.8v-55H843.4Z"/><path class="cls-1" d="M912.62,556.14H897.09v-7.91l-4,5.83c-3,2.27-8.21,3.46-13.55,3.46-14.53,0-23.34-11.07-23.34-26.7,0-18.88,11.57-28.77,25.12-28.77,4.35,0,9.59,1.09,12.26,2.77l3.46,5.54v-26.9h15.53Zm-15.53-25.71V528c0-11.28-6.23-15.23-12.06-15.23-7.52,0-12.86,5.73-12.86,17.2,0,10.39,5.05,16.91,12.36,16.91C891.55,546.84,897.09,542.49,897.09,530.43Z"/><path class="cls-4" d="M409.61,612.82l-2.07,6.24h-4.41l7.47-20.7h5.19l7.32,20.7h-4.5l-2-6.24Zm1.05-3.27h4.86l-2.4-7.65Z"/><path class="cls-4" d="M454.12,608.44c0,6.33-3.77,9.93-8.57,10.5a19,19,0,0,1-2.64.12h-7.08v-20.7H443a19,19,0,0,1,2.64.12C450.41,599.05,454.12,602.11,454.12,608.44Zm-4.37.06c0-4.08-2-6.39-5-6.78a15.94,15.94,0,0,0-2.22-.12H440v14.19h2.46a16,16,0,0,0,2.19-.09C447.71,615.31,449.75,612.73,449.75,608.5Z"/><path class="cls-4" d="M472.91,619.06l-7.32-20.7h4.5l5.49,17.52,5.58-17.52h4.41l-7.47,20.7Z"/><path class="cls-4" d="M500.57,612.82l-2.07,6.24h-4.41l7.47-20.7h5.19l7.32,20.7h-4.5l-2-6.24Zm1.05-3.27h4.86l-2.4-7.65Z"/><path class="cls-4" d="M539.3,619.06l-8.52-15.72c.12,2.25.15,4.62.15,6.36v9.36h-4.14v-20.7h5.49l8.7,16c-.12-2.22-.15-4.74-.15-6.51v-9.51h4.11l0,20.7Z"/><path class="cls-4" d="M577.61,605.08l0,.3H573.5l-.06-.3a4.53,4.53,0,0,0-4.83-4.05c-3.33,0-5.58,2.85-5.58,7.56,0,5.16,2.37,7.8,5.52,7.8,2.7,0,4.26-1.62,4.8-4.2l.06-.3h4.11l0,.3c-.45,4.41-3.81,7.29-9.12,7.29-5.76,0-9.72-4.05-9.72-10.65,0-6.78,4.29-10.89,10-10.89S577.19,601,577.61,605.08Z"/><path class="cls-4" d="M606.46,619.06H591.53v-20.7h14.64v3.24h-10.5v5.46h9.75v3.27h-9.75v5.46h10.79Z"/><path class="cls-4" d="M638.5,608.44c0,6.33-3.77,9.93-8.57,10.5a19,19,0,0,1-2.64.12h-7.08v-20.7h7.14a19,19,0,0,1,2.64.12C634.79,599.05,638.5,602.11,638.5,608.44Zm-4.38.06c0-4.08-2-6.39-5-6.78a15.94,15.94,0,0,0-2.22-.12h-2.52v14.19h2.46a16,16,0,0,0,2.19-.09C632.09,615.31,634.12,612.73,634.12,608.5Z"/><path class="cls-4" d="M690.67,619.06h-4.14v-9.57c0-2.16,0-4.92.06-7.08-.51,2.16-1.26,4.92-1.92,7.05l-2.91,9.6h-4.5l-3-9.63c-.63-2.1-1.38-4.86-1.86-7,.06,2.16.06,4.89.06,7v9.57h-4.14v-20.7h6.54l4.68,16.89,4.68-16.89h6.42Z"/><path class="cls-4" d="M709.72,612.82l-2.07,6.24h-4.4l7.46-20.7h5.19l7.32,20.7h-4.5l-2-6.24Zm1-3.27h4.86l-2.4-7.65Z"/><path class="cls-4" d="M743,601.6v17.46h-4.14V601.6h-7v-3.24H750v3.24Z"/><path class="cls-4" d="M777.61,619.06H762.67v-20.7h14.64v3.24h-10.5v5.46h9.75v3.27h-9.75v5.46h10.8Z"/><path class="cls-4" d="M807.85,619.06h-4.53a18.21,18.21,0,0,1-1-4.62c-.27-2.22-1.11-3.57-2.79-3.69-.57,0-1.08,0-1.62,0h-2.4v8.34h-4.14v-20.7h7.56a23.32,23.32,0,0,1,3,.15c3,.37,5.43,1.92,5.43,5.49a5,5,0,0,1-4.05,5c2,.78,2.82,2.49,3.06,4.8C806.62,616.36,807,617.89,807.85,619.06Zm-9.51-11.43c.72,0,1.23,0,1.68,0,1.65-.15,3-1,3-3s-1.11-2.73-2.73-2.94a13.53,13.53,0,0,0-1.74-.09h-3v6Z"/><path class="cls-4" d="M821.17,619.06v-20.7h4.14v20.7Z"/><path class="cls-4" d="M844.39,612.82l-2.07,6.24h-4.41l7.47-20.7h5.19l7.32,20.7h-4.5l-2-6.24Zm1.05-3.27h4.86l-2.4-7.65Z"/><path class="cls-4" d="M885.55,619.06H870.61v-20.7h4.14v17.25h10.8Z"/><path class="cls-4" d="M913.45,604.45h-4.23c-.24-2.1-1.41-3.42-3.57-3.42-1.65,0-2.91.78-2.91,2.46s1.11,2.61,4.41,3.39c4.56,1,6.6,3.15,6.6,6.48,0,3.9-3.57,6.12-7.65,6.12-5,0-8.19-2.19-8.58-6.54h4.23a4.12,4.12,0,0,0,4.29,3.45c1.89,0,3.39-1,3.39-2.61s-1.08-2.76-4.14-3.48c-4.23-1-6.9-2.49-6.9-6.3s3.45-6.06,7.41-6.06C910.75,597.94,913,600.76,913.45,604.45Z"/></svg>