<svg id="Layer_1" data-name="Layer 1" xmlns="http://www.w3.org/2000/svg" viewBox="0 0 1080 1080"><defs><style>.cls-1{fill:#6aa361;}.cls-2{fill:#90c185;}.cls-3{fill:#b9d6b2;}.cls-4{fill:#435b3d;}</style></defs><polygon class="cls-1" points="233.61 525.18 259.38 510.31 285.14 525.18 285.14 554.93 259.38 569.81 233.61 554.93 233.61 525.18"/><polygon class="cls-2" points="267.05 479.86 288.97 467.2 310.89 479.86 310.89 505.17 288.97 517.82 267.05 505.17 267.05 479.86"/><polygon class="cls-2" points="208.16 479.8 230.07 467.14 251.99 479.8 251.99 505.11 230.07 517.76 208.16 505.11 208.16 479.8"/><polygon class="cls-2" points="267.08 574.79 289 562.13 310.92 574.79 310.92 600.1 289 612.75 267.08 600.1 267.08 574.79"/><polygon class="cls-2" points="208.18 574.73 230.1 562.07 252.02 574.73 252.02 600.04 230.1 612.69 208.18 600.04 208.18 574.73"/><polygon class="cls-2" points="182.54 527.48 204.46 514.83 226.38 527.48 226.38 552.79 204.46 565.45 182.54 552.79 182.54 527.48"/><polygon class="cls-2" points="292.72 527.48 314.64 514.83 336.56 527.48 336.56 552.79 314.64 565.45 292.72 552.79 292.72 527.48"/><polygon class="cls-3" points="178.17 491.75 189.24 485.36 200.31 491.75 200.31 504.53 189.24 510.92 178.17 504.53 178.17 491.75"/><polygon class="cls-3" points="248.58 456.26 259.65 449.86 270.72 456.26 270.72 469.04 259.65 475.43 248.58 469.04 248.58 456.26"/><polygon class="cls-3" points="318.56 494.6 329.63 488.2 340.7 494.6 340.7 507.38 329.63 513.77 318.56 507.38 318.56 494.6"/><polygon class="cls-3" points="318.56 572.77 329.63 566.38 340.7 572.77 340.7 585.55 329.63 591.94 318.56 585.55 318.56 572.77"/><polygon class="cls-3" points="248.63 610.96 259.7 604.57 270.77 610.96 270.77 623.74 259.7 630.14 248.63 623.74 248.63 610.96"/><polygon class="cls-3" points="178.27 571.13 189.34 564.74 200.41 571.13 200.41 583.91 189.34 590.31 178.27 583.91 178.27 571.13"/><path class="cls-1" d="M432.91,544.66l-26.7-48.84c.5,7.22.59,14.24.59,19.18v29.66H391.28V476.44h19.88l27.48,50.23c-.39-7.12-.49-14.83-.49-19.88V476.44h15.42v68.22Z"/><path class="cls-1" d="M517.05,522.32h-37c.89,10.08,5.24,13,11.08,13,5.44,0,9.09-3,10-7.91h15.33c-2.87,12.16-12.76,18.59-25.61,18.59-14.73,0-26.3-9-26.3-27.59,0-15.82,10.58-27.88,27.29-27.88s25.51,12.75,25.51,26.79A48,48,0,0,1,517.05,522.32Zm-36.58-9.79h20.76c-.89-7.42-4.35-11.27-10.08-11.27C485.61,501.26,481.75,504.72,480.47,512.53Z"/><path class="cls-1" d="M580.73,518.26c0,16.42-10.38,27.79-27.79,27.79s-27.78-11.37-27.78-27.79,10.28-27.68,27.78-27.68S580.73,501.85,580.73,518.26Zm-16,0c0-11-4.45-17-11.77-17s-11.86,6-11.86,17,4.45,17.11,11.86,17.11S564.71,529.24,564.71,518.26Z"/><path class="cls-1" d="M688.4,544.66H667.84l-10.29-55.27-11,55.27H625.91L609.1,476.44h16.62L636.2,532.6l10.58-55.17h22.05l10.28,55.66,11.17-56.65H706.2Z"/><path class="cls-1" d="M763.75,518.26c0,16.42-10.38,27.79-27.79,27.79s-27.78-11.37-27.78-27.79,10.28-27.68,27.78-27.68S763.75,501.85,763.75,518.26Zm-16,0c0-11-4.45-17-11.77-17s-11.86,6-11.86,17,4.45,17.11,11.86,17.11S747.73,529.24,747.73,518.26Z"/><path class="cls-1" d="M807.55,491v12.56c-12.26-.79-17.5,4.15-17.5,19.08v22H774.53V492h15.52v10.09l4-7.32a14,14,0,0,1,9.6-4.15A22,22,0,0,1,807.55,491Z"/><path class="cls-1" d="M831.48,526.67c0,2.27,0,3.46.1,4.84.29,2.38,1.38,3.17,6,3v10.58a88.64,88.64,0,0,1-9.3.49c-7.41,0-11.76-2.86-12.16-9.79-.19-2.57-.19-5.14-.19-8.8V472h15.52Z"/><path class="cls-1" d="M900.69,544.66H885.17v-7.91l-4,5.84c-3,2.27-8.2,3.46-13.54,3.46-14.54,0-23.34-11.08-23.34-26.7,0-18.88,11.57-28.77,25.12-28.77,4.35,0,9.59,1.09,12.26,2.77l3.46,5.53V472h15.52ZM885.17,519v-2.48c0-11.27-6.23-15.22-12.07-15.22-7.51,0-12.85,5.73-12.85,17.2,0,10.38,5,16.91,12.36,16.91C879.63,535.37,885.17,531,885.17,519Z"/><path class="cls-4" d="M397.68,601.35l-2.07,6.24H391.2l7.47-20.7h5.19l7.32,20.7h-4.5l-2-6.24Zm1.05-3.27h4.86l-2.4-7.65Z"/><path class="cls-4" d="M442.2,597c0,6.33-3.78,9.93-8.58,10.5a19,19,0,0,1-2.64.12H423.9v-20.7H431a19,19,0,0,1,2.64.12C438.48,587.58,442.2,590.64,442.2,597Zm-4.38.06c0-4.08-2-6.39-5-6.78a15.94,15.94,0,0,0-2.22-.12H428v14.19h2.46a16,16,0,0,0,2.19-.09C435.78,603.84,437.82,601.26,437.82,597Z"/><path class="cls-4" d="M461,607.59l-7.32-20.7h4.5l5.49,17.52,5.58-17.52h4.41l-7.47,20.7Z"/><path class="cls-4" d="M488.64,601.35l-2.07,6.24h-4.41l7.47-20.7h5.19l7.32,20.7h-4.5l-2-6.24Zm1.05-3.27h4.86l-2.4-7.65Z"/><path class="cls-4" d="M527.37,607.59l-8.52-15.72c.12,2.25.15,4.62.15,6.36v9.36h-4.14v-20.7h5.49l8.7,16c-.12-2.22-.15-4.74-.15-6.51v-9.51H533l0,20.7Z"/><path class="cls-4" d="M565.68,593.61l0,.3h-4.14l-.06-.3a4.53,4.53,0,0,0-4.83-4.05c-3.33,0-5.58,2.85-5.58,7.56,0,5.16,2.37,7.8,5.52,7.8,2.7,0,4.26-1.62,4.8-4.2l.06-.3h4.11l0,.3c-.45,4.41-3.81,7.29-9.12,7.29-5.76,0-9.72-4-9.72-10.65,0-6.78,4.29-10.89,10-10.89S565.26,589.53,565.68,593.61Z"/><path class="cls-4" d="M594.54,607.59H579.6v-20.7h14.64v3.24h-10.5v5.46h9.75v3.27h-9.75v5.46h10.8Z"/><path class="cls-4" d="M626.58,597c0,6.33-3.78,9.93-8.58,10.5a19,19,0,0,1-2.64.12h-7.08v-20.7h7.14a19,19,0,0,1,2.64.12C622.86,587.58,626.58,590.64,626.58,597Zm-4.38.06c0-4.08-2-6.39-5-6.78a15.94,15.94,0,0,0-2.22-.12h-2.52v14.19h2.46a16,16,0,0,0,2.19-.09C620.16,603.84,622.2,601.26,622.2,597Z"/><path class="cls-4" d="M678.75,607.59h-4.14V598c0-2.16,0-4.92.06-7.08-.51,2.16-1.26,4.92-1.92,7l-2.91,9.6h-4.5l-3-9.63c-.63-2.1-1.38-4.86-1.86-7,.06,2.16.06,4.89.06,7v9.57h-4.14v-20.7H663l4.68,16.89,4.68-16.89h6.42Z"/><path class="cls-4" d="M697.8,601.35l-2.07,6.24h-4.41l7.47-20.7H704l7.32,20.7h-4.5l-2-6.24Zm1.05-3.27h4.86l-2.4-7.65Z"/><path class="cls-4" d="M731,590.13v17.46H726.9V590.13h-7v-3.24h18.18v3.24Z"/><path class="cls-4" d="M765.69,607.59H750.75v-20.7h14.64v3.24h-10.5v5.46h9.75v3.27h-9.75v5.46h10.8Z"/><path class="cls-4" d="M795.93,607.59H791.4a18.21,18.21,0,0,1-1-4.62c-.27-2.22-1.11-3.57-2.79-3.69-.57,0-1.08,0-1.62,0h-2.4v8.34h-4.14v-20.7H787a23.32,23.32,0,0,1,3,.15c3,.36,5.43,1.92,5.43,5.49a5,5,0,0,1-4,5c2,.78,2.82,2.49,3.06,4.8C794.7,604.89,795.09,606.42,795.93,607.59Zm-9.51-11.43c.72,0,1.23,0,1.68,0,1.65-.15,3-1,3-3s-1.11-2.73-2.73-2.94a13.53,13.53,0,0,0-1.74-.09h-3v6Z"/><path class="cls-4" d="M809.25,607.59v-20.7h4.14v20.7Z"/><path class="cls-4" d="M832.47,601.35l-2.07,6.24H826l7.47-20.7h5.19l7.32,20.7h-4.5l-2-6.24Zm1-3.27h4.86l-2.4-7.65Z"/><path class="cls-4" d="M873.63,607.59H858.69v-20.7h4.14v17.25h10.8Z"/><path class="cls-4" d="M901.53,593H897.3c-.24-2.1-1.41-3.42-3.57-3.42-1.65,0-2.91.78-2.91,2.46s1.11,2.61,4.41,3.39c4.56,1.05,6.6,3.15,6.6,6.48,0,3.9-3.57,6.12-7.65,6.12-4.95,0-8.19-2.19-8.58-6.54h4.23a4.12,4.12,0,0,0,4.29,3.45c1.89,0,3.39-1,3.39-2.61s-1.08-2.76-4.14-3.48c-4.23-1-6.9-2.49-6.9-6.3s3.45-6.06,7.41-6.06C898.83,586.47,901.08,589.29,901.53,593Z"/></svg>