<?xml version="1.0" encoding="UTF-8"?>
<svg xmlns="http://www.w3.org/2000/svg" version="1.1" viewBox="0 0 1920 1080">
  <!-- Generator: Adobe Illustrator 28.6.0, SVG Export Plug-In . SVG Version: 1.2.0 Build 709)  -->
  <g>
    <g id="Layer_1">
      <g>
        <g>
          <polygon points="228.9 524.2 304.2 480.7 379.6 524.2 379.6 611.2 304.2 654.8 228.9 611.2 228.9 524.2" fill="#6aa361"/>
          <polygon points="326.7 391.5 390.8 354.5 455 391.5 455 465.6 390.8 502.6 326.7 465.6 326.7 391.5" fill="#90c185"/>
          <polygon points="154.4 391.4 218.5 354.3 282.6 391.4 282.6 465.4 218.5 502.5 154.4 465.4 154.4 391.4" fill="#90c185"/>
          <polygon points="326.8 669.3 390.9 632.3 455.1 669.3 455.1 743.4 390.9 780.4 326.8 743.4 326.8 669.3" fill="#90c185"/>
          <polygon points="154.4 669.1 218.6 632.1 282.7 669.1 282.7 743.2 218.6 780.2 154.4 743.2 154.4 669.1" fill="#90c185"/>
          <polygon points="79.4 530.9 143.6 493.9 207.7 530.9 207.7 605 143.6 642 79.4 605 79.4 530.9" fill="#90c185"/>
          <polygon points="401.8 530.9 466 493.9 530.1 530.9 530.1 605 466 642 401.8 605 401.8 530.9" fill="#90c185"/>
          <polygon points="66.6 426.3 99 407.6 131.4 426.3 131.4 463.8 99 482.4 66.6 463.8 66.6 426.3" fill="#b9d6b2"/>
          <polygon points="272.6 322.5 305 303.8 337.4 322.5 337.4 359.9 305 378.6 272.6 359.9 272.6 322.5" fill="#b9d6b2"/>
          <polygon points="477.4 434.7 509.8 416 542.2 434.7 542.2 472.1 509.8 490.8 477.4 472.1 477.4 434.7" fill="#b9d6b2"/>
          <polygon points="477.4 663.4 509.8 644.7 542.2 663.4 542.2 700.8 509.8 719.5 477.4 700.8 477.4 663.4" fill="#b9d6b2"/>
          <polygon points="272.8 775.2 305.2 756.5 337.6 775.2 337.6 812.6 305.2 831.3 272.8 812.6 272.8 775.2" fill="#b9d6b2"/>
          <polygon points="66.9 658.6 99.3 639.9 131.7 658.6 131.7 696 99.3 714.8 66.9 696 66.9 658.6" fill="#b9d6b2"/>
        </g>
        <g>
          <path d="M627.2,670.6l-5,15h-10.6l18-49.9h12.5l17.6,49.9h-10.8l-4.8-15h-16.9ZM629.7,662.7h11.7l-5.8-18.4-5.9,18.4Z" fill="#435b3d"/>
          <path d="M734.4,660.1c0,15.2-9.1,23.9-20.6,25.3-2.1.2-4.2.3-6.4.3h-17.1v-49.9h17.3c2.1,0,4.2,0,6.4.3,11.5,1.4,20.4,8.7,20.4,24h0ZM723.8,660.2c0-9.8-4.8-15.4-12-16.3-1.8-.2-3.6-.3-5.4-.3h-6.1v34.2h5.9c1.8,0,3.5,0,5.3-.2,7.4-.9,12.3-7.2,12.3-17.3h0Z" fill="#435b3d"/>
          <path d="M779.6,685.6l-17.6-49.9h10.8l13.2,42.2,13.4-42.2h10.6l-18,49.9h-12.5,0Z" fill="#435b3d"/>
          <path d="M846.2,670.6l-5,15h-10.6l18-49.9h12.5l17.6,49.9h-10.8l-4.8-15h-16.9ZM848.8,662.7h11.7l-5.8-18.4-5.9,18.4Z" fill="#435b3d"/>
          <path d="M939.5,685.6l-20.5-37.9c.3,5.4.4,11.1.4,15.3v22.5h-10v-49.9h13.2l21,38.5c-.3-5.4-.4-11.4-.4-15.7v-22.9h9.9v49.9h-13.6c0,0,0,0,0,0Z" fill="#435b3d"/>
          <path d="M1031.8,652v.7h-9.9v-.7c-.8-5.9-5.9-10.2-11.8-9.8-8,0-13.4,6.9-13.4,18.2s5.7,18.8,13.3,18.8,10.3-3.9,11.6-10.1v-.7h10v.7c-1.1,10.6-9.2,17.6-22,17.6s-23.4-9.8-23.4-25.7,10.3-26.2,24.1-26.2,20.5,7.4,21.5,17.2h0Z" fill="#435b3d"/>
          <path d="M1101.3,685.6h-36v-49.9h35.3v7.8h-25.3v13.1h23.5v7.9h-23.5v13.1h26v7.9h0Z" fill="#435b3d"/>
          <path d="M1178.4,660.1c0,15.2-9.1,23.9-20.6,25.3-2.1.2-4.2.3-6.4.3h-17.1v-49.9h17.2c2.1,0,4.2,0,6.4.3,11.6,1.4,20.5,8.7,20.5,24h0ZM1167.9,660.2c0-9.8-4.8-15.4-12-16.3-1.8-.2-3.6-.3-5.4-.3h-6.1v34.2h5.9c1.8,0,3.5,0,5.3-.2,7.4-.9,12.3-7.2,12.3-17.3h0Z" fill="#435b3d"/>
          <path d="M1304.1,685.6h-10v-23c0-5.2,0-11.8.1-17.1-1.2,5.2-3,11.8-4.6,17l-7,23.1h-10.8l-7.2-23.2c-1.5-5.1-3.3-11.7-4.5-16.9.1,5.2.1,11.8.1,16.9v23h-10v-49.9h15.8l11.3,40.7,11.3-40.7h15.5v50c0,0,0,0,0,0Z" fill="#435b3d"/>
          <path d="M1349.9,670.6l-5,15h-10.6l18-49.9h12.5l17.6,49.9h-10.8l-4.8-15h-16.9ZM1352.3,662.7h11.7l-5.8-18.4-5.9,18.4Z" fill="#435b3d"/>
          <path d="M1430.1,643.6v42h-10v-42h-16.9v-7.8h43.7v7.8h-16.9Z" fill="#435b3d"/>
          <path d="M1513.4,685.6h-36v-49.9h35.3v7.8h-25.3v13.1h23.5v7.9h-23.5v13.1h26v7.9h0Z" fill="#435b3d"/>
          <path d="M1586.3,685.6h-10.9c-1.3-3.6-2.1-7.3-2.4-11.1-.7-5.4-2.7-8.6-6.7-8.9h-9.7v20.1h-10v-49.9h18.2c2.4,0,4.8,0,7.2.4,7.2.9,13.1,4.6,13.1,13.2.1,5.9-4,10.9-9.8,12,4.8,1.9,6.8,6,7.4,11.6.6,6.1,1.5,9.8,3.6,12.6h0ZM1563.4,658.1h4c4-.4,7.2-2.4,7.2-7.2s-2.7-6.6-6.6-7.1c-1.4-.2-2.8-.2-4.2-.2h-7.2v14.5h6.7c0,0,0,0,0,0Z" fill="#435b3d"/>
          <path d="M1618.3,685.6v-49.9h10v49.9h-10Z" fill="#435b3d"/>
          <path d="M1674.3,670.6l-5,15h-10.6l18-49.9h12.5l17.6,49.9h-10.8l-4.8-15h-16.9ZM1676.8,662.7h11.7l-5.8-18.4-5.9,18.4Z" fill="#435b3d"/>
          <path d="M1773.4,685.6h-36v-49.9h10v41.5h26v8.3Z" fill="#435b3d"/>
          <path d="M1840.6,650.4h-10.2c-.6-5.1-3.4-8.2-8.6-8.2s-7,1.9-7,5.9,2.7,6.3,10.6,8.2c11,2.4,15.9,7.6,15.9,15.6s-8.6,14.7-18.4,14.7-19.7-5.3-20.7-15.8h10.2c.8,5,5.3,8.6,10.3,8.3,4.6,0,8.2-2.4,8.2-6.3s-2.6-6.6-10-8.4c-10.2-2.4-16.6-6-16.6-15.2s8.3-14.6,17.8-14.6,17.3,6.8,18.4,15.7h0Z" fill="#435b3d"/>
        </g>
        <g isolation="isolate">
          <g isolation="isolate">
            <path d="M737.8,588h-29.6l-67.1-101.4v101.4h-29.6v-147.9h29.6l67.1,101.6v-101.6h29.6v147.9Z" fill="#6aa361"/>
            <path d="M796.7,464.2v37h49.7v23.5h-49.7v39.2h56.1v24.1h-85.7v-147.9h85.7v24.1h-56.1Z" fill="#6aa361"/>
            <path d="M910.1,579.7c-11.6-6.5-20.7-15.5-27.5-27-6.8-11.5-10.2-24.5-10.2-39s3.4-27.3,10.2-38.8c6.8-11.5,15.9-20.5,27.5-27,11.6-6.5,24.3-9.7,38.1-9.7s26.7,3.2,38.2,9.7c11.5,6.5,20.6,15.5,27.3,27,6.7,11.5,10.1,24.4,10.1,38.8s-3.4,27.5-10.1,39c-6.7,11.5-15.8,20.5-27.4,27-11.6,6.5-24.3,9.7-38.1,9.7s-26.5-3.2-38.1-9.7ZM971.7,557c6.8-4,12.1-9.8,15.9-17.2,3.8-7.5,5.7-16.2,5.7-26s-1.9-18.5-5.7-25.9c-3.8-7.4-9.1-13.1-15.9-17-6.8-3.9-14.6-5.9-23.5-5.9s-16.8,2-23.6,5.9c-6.8,4-12.2,9.6-16,17-3.8,7.4-5.7,16.1-5.7,25.9s1.9,18.6,5.7,26c3.8,7.5,9.1,13.2,16,17.2,6.8,4,14.7,6,23.6,6s16.7-2,23.5-6Z" fill="#6aa361"/>
            <path d="M1293.6,440.3l-41.3,147.7h-34.9l-27.7-105.2-29,105.2-34.7.2-39.8-147.9h31.7l26,114.7,30.1-114.7h33l28.4,114.1,26.2-114.1h32Z" fill="#6aa361"/>
            <path d="M1343.3,579.7c-11.6-6.5-20.7-15.5-27.5-27-6.8-11.5-10.2-24.5-10.2-39s3.4-27.3,10.2-38.8c6.8-11.5,15.9-20.5,27.5-27,11.6-6.5,24.3-9.7,38.1-9.7s26.7,3.2,38.2,9.7c11.5,6.5,20.6,15.5,27.3,27,6.7,11.5,10.1,24.4,10.1,38.8s-3.4,27.5-10.1,39c-6.7,11.5-15.8,20.5-27.4,27-11.6,6.5-24.3,9.7-38.1,9.7s-26.5-3.2-38.1-9.7ZM1404.9,557c6.8-4,12.1-9.8,15.9-17.2,3.8-7.5,5.7-16.2,5.7-26s-1.9-18.5-5.7-25.9c-3.8-7.4-9.1-13.1-15.9-17-6.8-3.9-14.6-5.9-23.5-5.9s-16.8,2-23.6,5.9c-6.8,4-12.2,9.6-16,17-3.8,7.4-5.7,16.1-5.7,25.9s1.9,18.6,5.7,26c3.8,7.5,9.1,13.2,16,17.2,6.8,4,14.7,6,23.6,6s16.7-2,23.5-6Z" fill="#6aa361"/>
            <path d="M1555.2,588l-32.6-57.6h-14v57.6h-29.6v-147.7h55.4c11.4,0,21.2,2,29.2,6,8,4,14.1,9.5,18.1,16.3,4,6.8,6,14.5,6,23s-2.8,18.5-8.5,26.3c-5.6,7.8-14,13.2-25.2,16.2l35.3,59.9h-34.3ZM1508.6,508.2h24.8c8,0,14-1.9,18-5.8,3.9-3.9,5.9-9.3,5.9-16.2s-2-12-5.9-15.8c-4-3.7-9.9-5.6-18-5.6h-24.8v43.4Z" fill="#6aa361"/>
            <path d="M1644.3,564.5h48.7v23.5h-78.3v-147.7h29.6v124.2Z" fill="#6aa361"/>
            <path d="M1804.4,449.4c11.8,6.1,20.9,14.7,27.3,25.9,6.4,11.2,9.6,24.2,9.6,39s-3.2,27.8-9.6,38.8c-6.4,11.1-15.5,19.6-27.3,25.7-11.8,6.1-25.4,9.1-41,9.1h-51.6v-147.7h51.6c15.5,0,29.2,3,41,9.1ZM1798.3,550.1c8.5-8.5,12.7-20.4,12.7-35.8s-4.2-27.4-12.7-36.1c-8.5-8.7-20.5-13-36-13h-21v97.6h21c15.5,0,27.5-4.2,36-12.7Z" fill="#6aa361"/>
          </g>
        </g>
      </g>
    </g>
  </g>
</svg>