<svg width="427" height="282" viewBox="0 0 427 282" fill="none" xmlns="http://www.w3.org/2000/svg">
<path d="M365.999 17.7938C317.863 -11.2636 255.202 -4.19582 212.786 35.0665C193.649 52.7917 177.1 77.1619 153.116 83.1544C131.904 88.4274 110.52 77.733 89.3084 72.4526C68.9872 67.3872 46.4949 67.6986 28.9211 80.5587C6.64013 96.8747 -2.8064 131.22 2.86152 161.026C8.52943 190.833 27.1983 215.789 49.5562 231.897C71.914 248.006 97.8903 256.194 123.803 261.8C173.162 272.473 224.134 274.453 273.666 264.767C307.648 258.129 341.515 245.625 369.041 221.604C396.567 197.582 417.074 160.789 418.509 120.896C419.943 81.0036 399.872 38.2482 365.999 17.7938Z" fill="#B4EFD4"/>
<path d="M195.359 87.4856V54.1563L169.639 37.4917L143.919 54.1563V87.4856L169.639 104.15L195.359 87.4856Z" stroke="#80C965" stroke-linecap="round" stroke-linejoin="round"/>
<path d="M258.052 91.1345V50.5075L226.703 30.2014L195.359 53.7707V87.4114L226.703 111.441L258.052 91.1345Z" stroke="#80C965" stroke-linecap="round" stroke-linejoin="round"/>
<path d="M226.664 30.3126V10.8965" stroke="#80C965" stroke-linecap="round" stroke-linejoin="round"/>
<path d="M151.066 60.6309L171.657 47.0144" stroke="#80C965" stroke-linecap="round" stroke-linejoin="round"/>
<path d="M257.649 91.053L270.97 102.845" stroke="#80C965" stroke-linecap="round" stroke-linejoin="round"/>
<path d="M58.548 58.176V83.6884L78.2352 96.4372L97.916 83.6884V58.176L78.2352 45.4272L58.548 58.176Z" stroke="#80C965" stroke-linecap="round" stroke-linejoin="round"/>
<path d="M10.566 55.3874V86.4769L34.5506 102.022L58.548 83.985V58.2427L34.5506 39.8501L10.566 55.3874Z" stroke="#80C965" stroke-linecap="round" stroke-linejoin="round"/>
<path d="M34.5891 101.933V116.795" stroke="#80C965" stroke-linecap="round" stroke-linejoin="round"/>
<path d="M92.4402 78.7268L76.6853 89.1542" stroke="#80C965" stroke-linecap="round" stroke-linejoin="round"/>
<path d="M10.8735 55.4542L0.677612 46.421" stroke="#80C965" stroke-linecap="round" stroke-linejoin="round"/>
<path d="M335.834 116.832L335.232 84.8527L309.96 69.4785L285.284 86.0764L285.879 118.048L311.158 133.423L335.834 116.832Z" stroke="#80C965" stroke-linecap="round" stroke-linejoin="round"/>
<path d="M396.772 118.835L396.048 79.8689L365.243 61.1277L335.225 84.4819L335.827 116.751L366.697 139.067L396.772 118.835Z" stroke="#80C965" stroke-linecap="round" stroke-linejoin="round"/>
<path d="M365.205 61.2389L364.859 42.6163" stroke="#80C965" stroke-linecap="round" stroke-linejoin="round"/>
<path d="M292.341 92.1207L312.093 78.5709" stroke="#80C965" stroke-linecap="round" stroke-linejoin="round"/>
<path d="M396.381 118.775L409.53 129.766" stroke="#80C965" stroke-linecap="round" stroke-linejoin="round"/>
<path d="M304.491 281.743C299.002 251.937 303.895 219.69 317.754 194.319C331.613 168.947 354.259 150.777 379.153 145.066C380.6 173.738 374.263 202.215 361.029 226.506C347.906 250.29 328.193 268.712 304.491 281.743Z" fill="#2A8768"/>
<path d="M376.073 148.53C372.134 152.98 368.317 157.57 364.609 162.295C364.609 162.25 364.564 162.191 364.538 162.117C364.386 161.651 364.256 161.175 364.148 160.693L362.476 154.559C362.303 153.914 361.49 154.315 361.669 154.96C362.246 157.051 362.822 159.135 363.392 161.227C363.5 161.881 363.697 162.512 363.975 163.096C357.335 171.615 351.08 180.527 345.236 189.795C343.485 183.43 340.591 177.566 336.743 172.589C336.365 172.114 335.687 172.722 336.064 173.204C340.072 178.221 343 184.264 344.608 190.84C344.076 191.686 343.545 192.531 343.026 193.384C337.136 202.954 331.679 212.871 326.676 223.094C324.416 216.236 321.113 209.904 316.922 204.398C316.531 203.886 315.814 204.531 316.211 205.05C320.516 210.689 323.866 217.215 326.086 224.288C322.923 230.83 319.934 237.504 317.12 244.313C316.019 246.992 314.951 249.684 313.918 252.389C311.702 247.953 309.066 243.816 306.06 240.056C305.65 239.544 304.907 240.211 305.323 240.73C308.478 244.629 311.206 248.963 313.444 253.635C310.741 260.77 308.248 268.01 305.964 275.358C305.765 275.988 306.604 276.411 306.771 275.78C308.999 268.651 311.433 261.625 314.072 254.703C314.148 254.747 314.232 254.766 314.317 254.758C314.402 254.75 314.483 254.716 314.552 254.658C317.662 252.245 321.049 250.348 324.613 249.022C326.394 248.365 328.216 247.869 330.063 247.539C331.914 247.212 333.759 247.198 335.616 247.02C336.096 246.975 336.116 246.018 335.616 245.981C333.715 245.91 331.813 246.075 329.942 246.471C328.064 246.816 326.208 247.312 324.389 247.954C320.932 249.159 317.642 250.935 314.622 253.227C318.239 243.833 322.205 234.629 326.522 225.616C326.586 225.682 326.665 225.727 326.75 225.745C326.834 225.763 326.921 225.755 327.002 225.72C335.246 221.533 344.178 219.476 353.177 219.69C353.664 219.69 353.67 218.682 353.177 218.659C344.208 218.283 335.282 220.272 327.073 224.474C327.476 223.643 327.867 222.805 328.277 221.974C333.517 211.367 339.249 201.095 345.447 191.204C348.534 189.442 351.919 188.492 355.36 188.421C358.801 188.351 362.213 189.162 365.352 190.796C365.858 191.055 366.184 190.136 365.685 189.861C362.703 188.268 359.47 187.405 356.187 187.326C352.904 187.247 349.642 187.954 346.606 189.402C350.022 184.047 353.553 178.813 357.199 173.701C359.684 170.24 362.231 166.848 364.839 163.526C365.267 163.411 365.683 163.247 366.082 163.036C369.183 161.886 372.546 162.151 375.484 163.778C375.996 164.038 376.297 163.14 375.817 162.844C373.215 161.317 370.242 160.865 367.388 161.561C366.941 161.67 366.498 161.806 366.063 161.968C369.478 157.667 372.975 153.464 376.553 149.361C377.008 148.908 376.483 148.07 376.073 148.53Z" fill="#5CB24D"/>
<path d="M307.494 278.791C311.511 265.501 317.931 253.357 326.326 243.172C334.72 232.986 344.896 224.993 356.173 219.727C367.45 214.462 379.568 212.045 391.716 212.638C403.864 213.232 415.763 216.822 426.617 223.168C398.482 261.793 351.922 281.113 307.494 278.791Z" fill="#006E45"/>
<path d="M421.256 223.324C416.517 223.495 411.79 223.962 407.096 224.674C408.192 222.803 409.133 220.816 409.907 218.741C409.934 218.631 409.926 218.514 409.883 218.412C409.841 218.309 409.768 218.228 409.678 218.183C409.587 218.139 409.486 218.134 409.393 218.17C409.299 218.205 409.221 218.279 409.171 218.377C408.321 220.673 407.247 222.848 405.969 224.859C399.403 225.925 392.902 227.473 386.506 229.495C388.209 225.012 389.202 220.211 389.439 215.322C389.439 214.721 388.664 214.58 388.638 215.188C388.415 220.147 387.383 225.011 385.596 229.524C385.577 229.604 385.577 229.689 385.596 229.769C381.754 231.01 377.952 232.404 374.19 233.952C369.989 235.687 365.849 237.606 361.772 239.707C362.448 233.139 362.332 226.495 361.426 219.965C361.343 219.371 360.542 219.482 360.625 220.083C361.561 226.738 361.63 233.518 360.83 240.196C353.945 243.794 347.244 247.845 340.759 252.33C340.759 252.27 340.708 252.226 340.688 252.167C340.531 251.391 340.447 250.597 340.439 249.801C340.291 248.258 340.086 246.715 339.798 245.188C339.216 241.869 338.358 238.623 337.236 235.494C337.19 235.395 337.113 235.318 337.02 235.28C336.928 235.242 336.827 235.245 336.736 235.288C336.645 235.332 336.572 235.412 336.529 235.515C336.487 235.617 336.479 235.734 336.506 235.843C337.537 238.748 338.335 241.757 338.889 244.832C339.164 246.352 339.376 247.895 339.529 249.437C339.632 250.527 339.529 251.855 339.965 252.901C336.948 255 333.964 257.18 331.043 259.442C329.346 260.755 327.662 262.104 325.997 263.469C325.648 262.587 325.342 261.684 325.081 260.762C324.191 258.181 323.32 255.571 322.442 253.005C322.402 252.893 322.326 252.805 322.23 252.759C322.134 252.713 322.026 252.714 321.93 252.76C321.834 252.806 321.758 252.895 321.718 253.006C321.679 253.117 321.679 253.242 321.719 253.353C322.596 255.941 323.486 258.545 324.351 261.118C324.628 262.108 324.949 263.081 325.311 264.033C319.718 268.646 314.311 273.538 309.089 278.71C308.589 279.207 309.211 280.156 309.729 279.659C314.921 274.487 320.299 269.588 325.862 264.96C326.444 265.549 327.09 266.047 327.784 266.443C329.494 267.668 331.098 269.081 332.574 270.663C334.049 272.329 335.421 274.113 336.679 276.003C336.747 276.106 336.848 276.174 336.959 276.191C337.07 276.209 337.183 276.174 337.272 276.095C337.361 276.017 337.419 275.9 337.434 275.772C337.449 275.643 337.42 275.513 337.352 275.409C335.116 271.713 332.268 268.567 328.975 266.154C328.147 265.642 327.356 265.051 326.612 264.389C331.142 260.651 335.785 257.116 340.541 253.783C341.179 254.423 341.88 254.973 342.629 255.422C343.615 256.164 344.55 256.906 345.492 257.729C347.345 259.367 349.061 261.205 350.615 263.217C352.348 265.5 353.891 267.965 355.227 270.581C355.463 271.034 356.149 270.581 355.925 270.114C353.739 265.597 350.863 261.577 347.439 258.248C345.685 256.596 343.838 255.079 341.912 253.709C341.717 253.563 341.53 253.402 341.355 253.227C344.121 251.319 346.924 249.487 349.764 247.732C353.491 245.432 357.284 243.274 361.144 241.257C368.141 245.83 373.701 252.861 377.021 261.333C377.245 261.904 378.026 261.541 377.802 260.955C374.522 252.496 369.049 245.43 362.143 240.738C370.049 236.649 378.207 233.25 386.551 230.57C389.498 232.17 392.041 234.62 393.936 237.685C395.831 240.749 397.015 244.326 397.374 248.073C397.399 248.185 397.458 248.282 397.541 248.347C397.623 248.413 397.724 248.44 397.823 248.426C397.922 248.411 398.013 248.355 398.079 248.268C398.145 248.181 398.181 248.07 398.181 247.954C397.806 244.24 396.662 240.686 394.847 237.594C393.032 234.501 390.599 231.962 387.755 230.192C390.035 229.485 392.329 228.837 394.639 228.249C398.367 227.309 402.118 226.531 405.892 225.912C405.95 225.973 406.021 226.016 406.097 226.039C407.614 226.501 409.029 227.333 410.247 228.479C411.417 229.653 412.527 230.906 413.571 232.231C413.91 232.624 414.455 231.979 414.16 231.556C413.1 230.045 411.892 228.681 410.561 227.492C409.716 226.722 408.786 226.088 407.794 225.608C412.316 224.941 416.869 224.511 421.429 224.34C421.903 224.244 421.794 223.28 421.256 223.324Z" fill="#3D9B4E"/>
<path d="M300.225 279.088C291.4 271.139 284.03 261.234 278.544 249.953C273.058 238.671 269.567 226.237 268.273 213.377C266.98 200.516 267.91 187.486 271.01 175.047C274.109 162.607 279.317 151.006 286.328 140.921C298.951 161.227 310.331 183.268 314.751 207.757C319.17 232.246 315.679 259.664 300.225 279.088Z" fill="#006E45"/>
<path d="M313.226 232.528C305.483 234.308 298.304 239.462 292.924 246.092C291.976 240.1 291.176 234.07 290.446 228.041C290.108 225.237 289.79 222.427 289.491 219.608C289.552 219.567 289.606 219.514 289.652 219.453C290.936 217.665 292.393 216.052 293.994 214.647C295.52 213.223 297.136 211.933 298.829 210.79C302.3 208.446 306.067 206.744 309.992 205.747C310.575 205.599 310.466 204.523 309.877 204.672C303.888 206.174 298.279 209.258 293.488 213.683C291.989 215.07 290.676 216.649 289.306 218.177C288.264 208.13 287.493 198.051 286.994 187.94C287.068 187.945 287.143 187.93 287.211 187.897C287.28 187.863 287.342 187.812 287.391 187.748C289.495 185.042 291.841 182.603 294.391 180.472C296.983 178.425 299.746 176.685 302.64 175.281C302.753 175.217 302.842 175.106 302.887 174.97C302.932 174.833 302.93 174.682 302.881 174.547C302.833 174.412 302.742 174.304 302.626 174.244C302.511 174.185 302.381 174.179 302.262 174.228C299.262 175.612 296.425 177.426 293.814 179.627C291.309 181.672 289.012 184.041 286.968 186.687C286.802 183.172 286.661 179.656 286.565 176.141C286.437 171.558 286.372 166.972 286.372 162.384C286.885 162.124 287.32 161.353 287.698 160.9C288.274 160.255 288.879 159.646 289.511 159.076C290.817 157.919 292.225 156.925 293.712 156.109C294.237 155.813 293.904 154.856 293.366 155.138C292.024 155.839 290.747 156.696 289.555 157.696C288.915 158.208 288.345 158.757 287.775 159.335C287.461 159.662 287.135 159.988 286.853 160.337C286.693 160.515 286.533 160.774 286.366 160.974C286.366 156.124 286.432 151.276 286.565 146.431C286.565 145.838 285.783 145.689 285.77 146.297C285.638 151.163 285.57 156.025 285.566 160.885V160.848C285.302 160.597 285.024 160.367 284.733 160.159C284.179 159.763 283.591 159.435 282.978 159.18C281.644 158.658 280.273 158.278 278.879 158.045C278.76 158.024 278.638 158.06 278.54 158.143C278.443 158.226 278.378 158.351 278.361 158.49C278.343 158.629 278.373 158.77 278.445 158.882C278.517 158.995 278.625 159.07 278.745 159.091C280.213 159.33 281.654 159.755 283.042 160.359C283.748 160.691 284.406 161.143 284.996 161.701C285.186 161.913 285.39 162.109 285.604 162.287C285.604 170.267 285.777 178.242 286.123 186.212C281.991 183.862 277.391 182.838 272.802 183.246C272.238 183.298 272.347 184.306 272.91 184.254C277.504 183.8 282.114 184.897 286.18 187.414C286.351 191.226 286.565 195.035 286.821 198.843C287.248 205.117 287.769 211.384 288.383 217.643C283.573 214.291 277.963 212.804 272.372 213.401C271.732 213.482 271.866 214.573 272.494 214.543C275.364 214.362 278.242 214.664 281.038 215.44C283.687 216.277 286.221 217.545 288.563 219.208C289.515 228.444 290.717 237.633 292.168 246.775C288.409 245.116 284.366 244.507 280.365 244.995C280.246 245.027 280.142 245.108 280.072 245.224C280.002 245.34 279.972 245.482 279.987 245.622C280.002 245.762 280.062 245.891 280.154 245.983C280.246 246.076 280.365 246.125 280.487 246.122C284.501 245.627 288.56 246.284 292.303 248.035H292.373C292.527 249 292.674 249.964 292.835 250.928C293.597 255.624 294.564 260.272 295.729 264.856C295.05 264.388 294.334 263.996 293.59 263.684C292.097 263.016 290.502 262.708 288.902 262.779C288.262 262.831 288.262 264.033 288.902 264.077C290.614 264.1 292.308 264.479 293.904 265.197C294.56 265.646 295.24 266.045 295.941 266.391L296.165 266.435C297.213 270.26 298.497 273.993 300.007 277.605C300.283 278.257 301.192 277.827 300.911 277.174C299.377 273.554 298.092 269.8 297.068 265.946C297.183 265.798 297.292 265.642 297.407 265.479C299.502 262.512 303.088 261.125 306.072 259.835C306.63 259.59 306.277 258.596 305.714 258.841C302.813 260.087 299.777 261.407 297.471 263.884C297.222 264.151 296.985 264.44 296.741 264.722C295.781 261.014 294.986 257.239 294.301 253.472C293.934 251.464 293.588 249.447 293.264 247.42C295.889 244.057 298.938 241.172 302.307 238.861C305.808 236.557 309.566 234.823 313.476 233.707C314.02 233.507 313.771 232.394 313.226 232.528Z" fill="#3D9B4E"/>
<g opacity="0.72">
<path d="M245.702 254.136C247.666 244.602 242.585 235.029 234.352 232.754C226.118 230.479 217.852 236.364 215.887 245.898C213.923 255.432 219.005 265.005 227.238 267.28C235.471 269.555 243.737 263.67 245.702 254.136Z" fill="#FEFFFE"/>
<path d="M234.638 202.002H226.971V250.031H234.638V202.002Z" fill="#FEFFFE"/>
<path d="M223.366 202.432V199.466C223.366 199.304 223.421 199.15 223.52 199.036C223.618 198.921 223.752 198.857 223.891 198.857H237.712C237.851 198.857 237.985 198.921 238.083 199.036C238.182 199.15 238.237 199.304 238.237 199.466V202.432C238.237 202.593 238.182 202.748 238.083 202.862C237.985 202.976 237.851 203.04 237.712 203.04H223.891C223.822 203.041 223.753 203.026 223.689 202.996C223.625 202.966 223.567 202.921 223.518 202.864C223.469 202.808 223.43 202.74 223.404 202.666C223.378 202.592 223.365 202.512 223.366 202.432Z" fill="#FEFFFE"/>
<path d="M241.625 250.023C241.625 253.345 240.485 256.531 238.457 258.88C236.428 261.23 233.677 262.549 230.808 262.549C227.939 262.549 225.187 261.23 223.159 258.88C221.13 256.531 219.991 253.345 219.991 250.023C219.985 247.611 220.593 245.251 221.739 243.237H239.883C241.027 245.252 241.633 247.612 241.625 250.023Z" fill="#36D6C1"/>
<path d="M196.352 267.778C204.816 267.778 211.678 259.832 211.678 250.03C211.678 240.229 204.816 232.283 196.352 232.283C187.888 232.283 181.026 240.229 181.026 250.03C181.026 259.832 187.888 267.778 196.352 267.778Z" fill="#FEFFFE"/>
<path d="M200.188 202.002H192.522V250.031H200.188V202.002Z" fill="#FEFFFE"/>
<path d="M188.916 202.432V199.466C188.916 199.304 188.972 199.15 189.07 199.036C189.169 198.921 189.302 198.857 189.442 198.857H203.262C203.402 198.857 203.535 198.921 203.634 199.036C203.732 199.15 203.787 199.304 203.787 199.466V202.432C203.787 202.593 203.732 202.748 203.634 202.862C203.535 202.976 203.402 203.04 203.262 203.04H189.442C189.372 203.041 189.304 203.026 189.24 202.996C189.175 202.966 189.117 202.921 189.068 202.864C189.019 202.808 188.981 202.74 188.955 202.666C188.929 202.592 188.916 202.512 188.916 202.432Z" fill="#FEFFFE"/>
<path d="M207.175 250.023C207.175 253.345 206.036 256.531 204.007 258.88C201.979 261.23 199.227 262.549 196.358 262.549C193.489 262.549 190.738 261.23 188.709 258.88C186.681 256.531 185.541 253.345 185.541 250.023C185.541 249.608 185.541 249.207 185.592 248.814H207.124C207.156 249.215 207.175 249.615 207.175 250.023Z" fill="#F59E42"/>
<path d="M266.461 267.778C274.925 267.778 281.787 259.832 281.787 250.03C281.787 240.229 274.925 232.283 266.461 232.283C257.997 232.283 251.135 240.229 251.135 250.03C251.135 259.832 257.997 267.778 266.461 267.778Z" fill="#FEFFFE"/>
<path d="M270.291 202.002H262.625V250.031H270.291V202.002Z" fill="#FEFFFE"/>
<path d="M259.019 202.432V199.466C259.019 199.304 259.075 199.15 259.173 199.036C259.271 198.921 259.405 198.857 259.544 198.857H273.365C273.504 198.857 273.638 198.921 273.736 199.036C273.835 199.15 273.89 199.304 273.89 199.466V202.432C273.89 202.593 273.835 202.748 273.736 202.862C273.638 202.976 273.504 203.04 273.365 203.04H259.544C259.475 203.041 259.406 203.026 259.342 202.996C259.278 202.966 259.22 202.921 259.171 202.864C259.122 202.808 259.083 202.74 259.057 202.666C259.031 202.592 259.018 202.512 259.019 202.432Z" fill="#FEFFFE"/>
<path d="M276.663 254.169C275.925 256.623 274.546 258.75 272.716 260.255C270.887 261.76 268.699 262.568 266.455 262.568C264.211 262.568 262.022 261.76 260.193 260.255C258.364 258.75 256.984 256.623 256.246 254.169H276.663Z" fill="#ED644C"/>
</g>
<path d="M288.082 242.221H174.724V246.026H288.082V242.221Z" fill="#012C34"/>
<path d="M214.573 244.757H212.382V275.602H214.573V244.757Z" fill="#012C34"/>
<path d="M249.618 246.026H247.427V276.871H249.618V246.026Z" fill="#012C34"/>
<path d="M286.308 246.026H284.118V276.871H286.308V246.026Z" fill="#012C34"/>
<path d="M178.426 246.026H176.236V276.871H178.426V246.026Z" fill="#012C34"/>
<path d="M116.374 274.119C120.4 260.306 121.724 245.628 120.25 231.149C118.776 216.671 114.541 202.752 107.851 190.402C101.161 178.051 92.1842 167.577 81.5694 159.738C70.9545 151.898 58.9675 146.89 46.4756 145.074C44.5523 170.971 49.5254 196.928 60.7255 219.453C71.8884 241.769 89.1163 259.961 116.374 274.119Z" fill="#2A8768"/>
<path d="M115.688 272.554C113.711 266.809 111.683 261.086 109.604 255.385C109.604 255.385 109.604 255.385 109.636 255.333C111.334 251.697 113.978 248.772 117.193 246.975C117.245 246.947 117.291 246.908 117.329 246.86C117.367 246.811 117.397 246.755 117.416 246.693C117.435 246.631 117.444 246.566 117.442 246.5C117.439 246.435 117.425 246.371 117.401 246.311C117.377 246.252 117.344 246.198 117.302 246.154C117.26 246.11 117.211 246.076 117.158 246.053C117.105 246.031 117.048 246.021 116.992 246.024C116.935 246.027 116.88 246.042 116.828 246.07C113.65 247.89 110.984 250.719 109.143 254.228C106.383 246.701 103.507 239.232 100.452 231.868C103.533 222.842 108.093 214.069 114.19 207.357C114.593 206.912 114.01 206.14 113.639 206.615C110.658 210.223 107.947 214.118 105.537 218.259C103.332 222.158 101.464 226.299 99.959 230.622C98.2298 226.491 96.4558 222.39 94.6049 218.326C92.6195 213.97 90.553 209.668 88.4054 205.421C90.3182 197.537 93.8316 190.298 98.6525 184.307C99.024 183.839 98.4732 183.075 98.1017 183.565C93.3918 189.476 89.8897 196.537 87.8546 204.227C83.4369 195.516 78.6026 187.098 73.3742 179.011C73.4371 178.933 73.4793 178.835 73.4959 178.729C74.5503 172.612 76.5741 166.773 79.4648 161.509C79.7466 160.989 79.0934 160.441 78.7924 160.952C75.8201 166.143 73.7693 171.967 72.7594 178.084C71.3056 175.859 69.8262 173.686 68.2763 171.536C65.4755 167.58 62.555 163.743 59.5151 160.025C59.5883 158.499 59.7877 156.984 60.1107 155.501C60.4648 154.047 60.9035 152.622 61.4236 151.237C61.6221 150.658 60.8984 150.391 60.6679 150.911C59.5738 153.477 58.9212 156.265 58.7465 159.12C55.8902 155.66 52.9271 152.339 49.8572 149.16C49.4922 148.782 49.0567 149.501 49.4153 149.902C52.3144 152.913 55.1131 156.043 57.8115 159.291C55.26 158.807 52.6527 158.885 50.1262 159.521C50.0304 159.555 49.9488 159.629 49.8969 159.729C49.845 159.828 49.8263 159.946 49.8445 160.06C49.8626 160.174 49.9163 160.277 49.9954 160.348C50.0744 160.42 50.1734 160.455 50.2735 160.448C53.0583 159.74 55.9426 159.74 58.7273 160.448C63.3577 166.105 67.7211 172.046 71.7988 178.247C64.8884 178.67 58.7081 182.86 52.9057 186.932C52.4766 187.236 52.8096 188.067 53.2451 187.763C59.0924 183.661 65.4135 179.323 72.4136 179.174C75.0736 183.248 77.6204 187.414 80.0541 191.671C82.6158 196.18 85.0943 200.778 87.4512 205.443C87.4483 205.463 87.4483 205.483 87.4512 205.503C78.1007 203.871 69.0961 209.685 61.5517 215.381C61.0457 215.759 61.6541 216.59 62.1537 216.212C69.7365 210.486 78.3633 205.021 87.733 206.571C87.8294 206.583 87.9264 206.556 88.0083 206.496C92.0239 214.536 95.7257 222.812 99.2033 231.163C91.1206 231.046 83.1283 233.142 75.8784 237.282C75.7782 237.341 75.7023 237.443 75.6675 237.567C75.6326 237.691 75.6417 237.826 75.6926 237.942C75.7436 238.058 75.8323 238.146 75.9392 238.186C76.0461 238.226 76.1624 238.216 76.2626 238.157C83.5354 234.014 91.5683 231.977 99.6708 232.224C101.054 235.586 102.408 238.96 103.731 242.347C105.281 246.337 106.79 250.347 108.259 254.377C106.113 253.85 103.916 253.665 101.727 253.828C99.0982 253.954 96.5133 254.648 94.1054 255.875C93.5866 256.164 93.9581 257.002 94.4768 256.794C96.777 255.79 99.1829 255.146 101.631 254.881C103.998 254.719 106.372 254.969 108.675 255.623C110.81 261.412 112.868 267.234 114.849 273.088C115.073 273.652 115.912 273.192 115.688 272.554Z" fill="#5CB24D"/>
<path d="M114.9 273.867C89.7439 228.768 43.2222 208.981 1.27963 225.549C26.9037 269.862 70.9021 292.296 114.9 273.867Z" fill="#006E45"/>
<path d="M112.633 271.924C107.254 269.308 101.857 266.74 96.443 264.218C95.7568 261.154 95.2645 258.036 94.9699 254.888C94.7085 251.543 94.6293 248.181 94.733 244.824C94.733 244.216 93.9516 244.12 93.9132 244.743C93.5613 251.142 94.0887 257.565 95.4759 263.773C90.1986 261.301 84.915 258.861 79.6249 256.453V256.401C78.2824 250.135 77.9632 243.633 78.6835 237.23C78.6833 237.115 78.6462 237.005 78.5792 236.92C78.5123 236.835 78.4205 236.783 78.3218 236.773C78.2231 236.762 78.1247 236.795 78.0458 236.865C77.967 236.934 77.9135 237.036 77.8958 237.148C77.5618 240.347 77.4633 243.572 77.6012 246.79C77.7767 249.879 78.1297 252.951 78.6579 255.986L71.1391 252.545L60.2131 247.539C60.2383 247.47 60.2513 247.395 60.2513 247.32C60.2513 247.245 60.2383 247.17 60.2131 247.101C58.0141 240.041 57.2771 232.481 58.0613 225.03C58.1381 224.4 57.2479 224.288 57.2031 224.941C56.8796 228.744 56.8796 232.574 57.2031 236.377C57.5788 240.038 58.2938 243.64 59.3357 247.123C51.6504 243.63 43.9651 240.189 36.2222 236.963C36.1837 236.8 36.1453 236.629 36.0941 236.444C35.0291 232.223 34.6747 227.804 35.0502 223.428C35.0497 223.31 35.0111 223.196 34.9418 223.109C34.8725 223.021 34.7776 222.967 34.6757 222.957C34.5737 222.947 34.4722 222.981 34.391 223.053C34.3098 223.125 34.2548 223.23 34.2368 223.347C33.8897 227.385 34.1475 231.462 34.9989 235.398C35.0822 235.784 35.2103 236.192 35.3191 236.592C33.4789 235.836 31.6366 235.094 29.7921 234.367C26.2121 232.951 22.6128 231.601 18.9879 230.348C18.4824 229.096 18.0543 227.805 17.707 226.484C17.3419 225.104 17.1434 223.703 16.8808 222.301C16.8513 222.193 16.7887 222.101 16.7049 222.042C16.621 221.983 16.5215 221.962 16.425 221.982C16.3286 222.002 16.2417 222.062 16.1806 222.15C16.1195 222.239 16.0884 222.351 16.0931 222.464C16.3455 225.075 16.9665 227.621 17.9311 229.999C13.9988 228.664 10.0345 227.44 6.03812 226.365C5.51936 226.224 5.22476 227.107 5.74352 227.27C9.72707 228.33 13.6786 229.554 17.5917 230.882C15.2989 232.166 13.2884 234.038 11.7124 236.355C11.3794 236.844 12.0583 237.393 12.3913 236.911C14.0779 234.438 16.2825 232.505 18.7957 231.297C24.3996 233.233 29.9458 235.406 35.4472 237.705C35.364 238.298 34.8068 238.624 34.4225 239.01C32.6887 240.664 31.0519 242.451 29.5231 244.357C27.9764 246.174 26.5864 248.161 25.3731 250.29C25.3108 250.403 25.2882 250.538 25.3101 250.669C25.332 250.8 25.3967 250.917 25.4906 250.994C25.5846 251.071 25.7007 251.104 25.8147 251.085C25.9288 251.065 26.0321 250.996 26.1032 250.891C27.621 248.755 29.0044 246.545 30.6567 244.535C32.3091 242.525 34.0511 240.916 35.7803 239.106C36.0607 238.845 36.2477 238.472 36.3054 238.061C40.0072 239.611 43.6897 241.22 47.3659 242.852C51.042 244.483 54.8014 246.174 58.516 247.858C53.2428 252.526 48.9549 258.521 45.9761 265.39C45.7455 265.924 46.4949 266.236 46.7254 265.716C49.7358 258.84 54.0832 252.866 59.4254 248.266C65.6163 251.069 71.8073 253.902 77.9982 256.765C72.8747 260.614 69.0769 266.918 65.785 272.732C65.7313 272.84 65.7143 272.966 65.7372 273.087C65.7601 273.209 65.8213 273.315 65.9088 273.387C65.9963 273.459 66.1037 273.49 66.2099 273.474C66.3162 273.459 66.4136 273.398 66.4831 273.303C68.3275 270.285 70.0824 267.207 72.1574 264.404C74.1482 261.654 76.4713 259.251 79.055 257.269C82.334 258.752 85.6195 260.302 88.8985 261.838C91.0568 262.846 93.2023 263.87 95.3542 264.893C92.2457 268.177 89.5026 271.896 87.1886 275.966C86.9068 276.47 87.56 277.004 87.829 276.507C90.1794 272.373 92.9775 268.605 96.1548 265.294C101.534 267.845 106.914 270.391 112.294 272.933C112.857 273.148 113.165 272.183 112.633 271.924Z" fill="#3D9B4E"/>
<path d="M245.941 82.2495L271.431 104.328" stroke="#40A0C6" stroke-width="4" stroke-miterlimit="10"/>
<path d="M280.448 22.9703L311.965 52.406" stroke="#40A0C6" stroke-width="4" stroke-miterlimit="10"/>
<path d="M275.69 36.6387L301.365 60.6159" stroke="#40A0C6" stroke-width="4" stroke-miterlimit="10"/>
<path d="M262.663 55.6395L286.942 78.3188" stroke="#40A0C6" stroke-width="4" stroke-miterlimit="10"/>
<path d="M250.943 65.2438L282.466 94.6794" stroke="#40A0C6" stroke-width="4" stroke-miterlimit="10"/>
<path d="M231.378 103.683L253.428 125.524" stroke="#40A0C6" stroke-width="4" stroke-miterlimit="10"/>
<path d="M315.212 47.4741C315.212 47.4741 303.684 68.24 284.515 59.5035C265.347 50.767 256.285 57.8126 250.783 65.7184C240.209 80.9146 249.124 98.1429 251.231 105.24C255.439 119.383 255.343 134.802 243.86 149.998" stroke="#71C9B8" stroke-width="8" stroke-linecap="round" stroke-linejoin="round"/>
<path d="M283.907 18.261C283.907 18.261 268.824 35.7711 280.288 55.5654C291.752 75.3598 287.711 87.1518 282.21 95.0503C271.642 110.246 255.209 103.816 248.766 102.941C235.957 101.184 222.95 104.573 212.568 120.793" stroke="#2A8FA0" stroke-width="8" stroke-linecap="round" stroke-linejoin="round"/>
<path d="M288.396 232.632C299.322 231.179 310.319 230.562 321.315 230.785C318.48 223.853 317.004 216.28 316.992 208.61C316.992 207.624 316.941 206.459 316.224 205.918C315.91 205.754 315.571 205.664 315.227 205.652C314.883 205.641 314.54 205.708 314.219 205.851C305.926 208.161 297.305 208.414 288.921 206.593C291.381 214.484 292.092 223.117 288.396 232.632Z" fill="#6F788C"/>
<path d="M291.451 276.544L291.592 265.82L298.765 265.857L297.715 275.217L291.451 276.544Z" fill="#FEA483"/>
<path d="M282.908 281.372C283.222 282.455 298.458 281.988 299.162 281.098C299.249 280.955 299.31 280.793 299.341 280.623C299.373 280.452 299.376 280.276 299.348 280.104C299.22 278.331 298.067 275.239 298.067 275.039C294.711 275.35 293.744 275.261 290.67 275.365C289.677 275.951 283.964 277.924 282.985 280.378C282.913 280.529 282.869 280.695 282.855 280.866C282.842 281.037 282.86 281.209 282.908 281.372Z" fill="#1A132E"/>
<path d="M282.908 281.372C283.222 282.455 298.458 281.988 299.162 281.098C299.249 280.955 299.31 280.793 299.341 280.623C299.373 280.452 299.376 280.276 299.348 280.104C296.54 280.622 293.705 280.919 290.862 280.994C288.229 280.955 285.599 280.749 282.985 280.378C282.911 280.528 282.866 280.694 282.853 280.866C282.84 281.037 282.858 281.21 282.908 281.372Z" fill="#5C6491"/>
<path d="M313.047 276.003L311.676 266.295L318.459 264.463L319.298 274.601L313.047 276.003Z" fill="#FEA483"/>
<path d="M304.536 280.92C304.862 281.995 320.092 281.372 320.784 280.475C320.869 280.331 320.929 280.169 320.959 279.999C320.99 279.828 320.991 279.652 320.963 279.481C320.822 277.708 319.682 274.631 319.631 274.43C316.281 274.779 315.308 274.697 312.234 274.831C311.247 275.432 305.554 277.464 304.6 279.926C304.53 280.077 304.488 280.244 304.477 280.415C304.466 280.586 304.486 280.758 304.536 280.92Z" fill="#1A132E"/>
<path d="M304.535 280.92C304.862 281.995 320.092 281.372 320.783 280.475C320.869 280.331 320.929 280.169 320.959 279.999C320.99 279.828 320.991 279.652 320.963 279.481C318.158 280.015 315.325 280.332 312.483 280.43C309.849 280.423 307.217 280.245 304.599 279.896C304.526 280.051 304.482 280.223 304.471 280.4C304.46 280.577 304.482 280.754 304.535 280.92Z" fill="#5C6491"/>
<path d="M291.611 185.338L289.773 273.934L299.495 273.667L303.53 217.591L310.972 273.229H320.976L314.93 184.032L291.611 185.338Z" fill="#1A132E"/>
<path d="M264.213 149.672L267.473 154.478L264.393 160.448L261.69 155.702L264.213 149.672Z" fill="#E8AA80"/>
<path d="M294.186 155.702L293.11 150.644C291.221 151.507 289.545 152.895 288.23 154.685C286.469 157.103 276.932 165.306 276.932 165.306L267.48 152.127L261.914 161.553C261.914 161.553 270.611 180.947 275.178 180.947C279.744 180.947 291.714 173.961 291.714 173.961L294.186 155.702Z" fill="#EDE6E7"/>
<path d="M263.605 166.604L270.823 155.575L267.633 151.845L260.8 160.826L263.605 166.604Z" fill="#A3B3E3"/>
<path d="M240.235 130.723L273.609 164.838" stroke="#40A0C6" stroke-width="4" stroke-miterlimit="10"/>
<path d="M263.605 148.233C261.812 146.372 259.82 146.283 256.822 146.424C256.445 146.424 255.433 146.609 255.542 147.358C255.599 147.87 256.31 148.263 256.701 148.404C257.742 148.741 258.825 148.864 259.903 148.767C260.465 150.005 261.403 150.959 262.535 151.445C263.176 152.98 264.13 153.595 265.936 153.595C266.73 151.852 265.398 150.087 263.605 148.233Z" fill="#E8AA80"/>
<path d="M254.094 151.919C254.04 152.215 254.083 152.525 254.216 152.786C254.349 153.047 254.561 153.24 254.812 153.328C256.144 153.862 258.507 151.378 258.75 150.206C259.026 148.871 257.777 149.042 256.765 149.464C256.342 149.628 254.306 150.644 254.094 151.919Z" fill="#E8AA80"/>
<path d="M256.073 153.121C256.019 153.417 256.062 153.726 256.195 153.987C256.328 154.248 256.54 154.442 256.791 154.53C258.123 155.064 260.486 152.579 260.729 151.407C261.005 150.073 259.756 150.243 258.744 150.666C258.321 150.822 256.285 151.845 256.073 153.121Z" fill="#E8AA80"/>
<path d="M257.822 154.745C257.767 155.041 257.81 155.35 257.943 155.611C258.076 155.872 258.289 156.066 258.539 156.154C259.871 156.688 262.234 154.203 262.478 153.032C262.753 151.697 261.504 151.867 260.492 152.29C260.07 152.446 258.033 153.462 257.822 154.745Z" fill="#E8AA80"/>
<path d="M259.045 156.577C258.99 156.873 259.034 157.182 259.166 157.443C259.299 157.704 259.512 157.898 259.762 157.986C261.094 158.52 263.457 156.035 263.701 154.863C263.976 153.528 262.727 153.699 261.715 154.122C261.293 154.263 259.256 155.286 259.045 156.577Z" fill="#E8AA80"/>
<path d="M256.278 153.143C257.035 152.503 257.736 151.781 258.372 150.984" stroke="#CF5953" stroke-width="0.5" stroke-linecap="round" stroke-linejoin="round"/>
<path d="M258.103 154.352C258.862 153.816 259.569 153.187 260.21 152.475" stroke="#CF5953" stroke-width="0.5" stroke-linecap="round" stroke-linejoin="round"/>
<path d="M259.429 156.191C260.307 155.66 261.113 154.98 261.818 154.174" stroke="#CF5953" stroke-width="0.5" stroke-linecap="round" stroke-linejoin="round"/>
<path d="M295.352 149.902C295.352 149.902 302.537 158.119 303.344 158.164C304.58 158.238 315.039 151.756 315.039 151.756C313.567 150.775 312.143 149.701 310.773 148.537C310.133 147.87 309.665 144.214 309.492 142.159C309.339 140.58 309.262 139.341 309.262 139.341L301.865 138.236C301.865 138.236 301.224 146.001 301.135 146.935C301.092 147.367 301.017 147.794 300.911 148.211C300.469 149.398 295.352 149.902 295.352 149.902Z" fill="#E8AA80"/>
<path d="M301.096 146.935C305.611 147.907 308.346 144.147 309.454 142.159C309.3 140.58 309.223 139.341 309.223 139.341L301.826 138.236C301.826 138.236 301.66 140.869 301.448 143.427C301.34 144.71 301.218 146.001 301.096 146.935Z" fill="#D68163"/>
<path d="M293.469 132.458C293.936 131.294 295.39 130.931 296.741 131.657C298.093 132.384 298.791 133.882 298.323 135.076C297.856 136.27 296.402 136.604 295.051 135.877C293.699 135.151 293.001 133.63 293.469 132.458Z" fill="#D68163"/>
<path d="M312.067 134.098C313.252 127.49 311.427 121.171 306.854 120.081C302.281 118.99 298.272 120.081 296.479 130.063C295.339 136.434 295.723 142.767 300.84 144.406C306.38 145.734 310.882 140.706 312.067 134.098Z" fill="#E8AA80"/>
<path d="M309.819 134.728C309.544 133.808 309.288 132.399 308.987 131.554C308.319 131.218 307.756 130.653 307.374 129.936C306.992 129.219 306.808 128.383 306.847 127.541C305.832 128.413 304.646 128.981 303.396 129.195C302.965 129.313 302.513 129.256 302.115 129.032C301.877 128.863 301.706 128.594 301.637 128.281C301.567 127.968 301.606 127.637 301.743 127.356C300.368 127.845 298.922 128.011 297.491 127.846C296.652 129.685 296.151 131.705 296.018 133.779C295.996 131.283 296.232 128.793 296.722 126.362C300.521 124.937 304.393 123.783 308.314 122.906C309.877 124.525 311.292 126.327 312.535 128.283C311.76 130.502 310.853 132.655 309.819 134.728Z" fill="#D68163"/>
<path d="M312.708 136.827C311.747 137.316 311.094 137.472 310.03 137.932C309.653 135.752 309.518 133.593 309.268 131.398C308.231 130.523 307.02 127.334 307.558 125.858C305.362 128.357 303.517 128.825 302.729 128.32C301.826 127.712 303.03 126.259 303.216 126.044C301.328 127.014 299.287 127.519 297.222 127.527C296.482 129.834 296.063 132.262 295.979 134.721C295.339 132.629 295.544 129.233 295.947 127.178C295.572 127.081 295.227 126.865 294.951 126.555C294.676 126.245 294.479 125.852 294.384 125.421C294.335 125.177 294.335 124.923 294.384 124.679C294.568 124.09 294.905 123.581 295.349 123.222C295.793 122.864 296.322 122.673 296.863 122.677C295.313 121.193 295.332 119.888 296.696 118.531C299.156 116.083 304.6 116.306 307.795 119.124C307.795 118.738 307.084 117.567 307.795 117.5C308.394 117.517 308.98 117.699 309.507 118.029C310.033 118.359 310.485 118.828 310.825 119.398C311.346 120.237 311.642 121.236 311.676 122.269C312.615 122.456 313.472 122.999 314.115 123.813C314.757 124.626 315.147 125.664 315.224 126.763C315.353 129.44 314.891 131.361 312.708 136.827Z" fill="#1D0100"/>
<path d="M310.831 119.391L310.773 119.339C310.558 119.091 310.286 118.917 309.989 118.838C309.693 118.76 309.383 118.779 309.095 118.894C308.94 119.002 308.81 119.151 308.715 119.329C308.621 119.507 308.564 119.709 308.551 119.918C308.534 120.366 308.593 120.815 308.724 121.238C307.397 120.026 305.867 119.147 304.23 118.658C302.594 118.169 300.887 118.08 299.22 118.397C298.246 118.59 297.158 119.065 296.837 120.147C296.517 121.23 297.222 122.513 298.208 123.448C297.471 123.253 296.7 123.337 296.008 123.688C295.317 124.039 294.74 124.639 294.365 125.398C294.315 125.154 294.315 124.9 294.365 124.657C294.549 124.067 294.886 123.558 295.33 123.2C295.774 122.841 296.303 122.651 296.844 122.654C295.294 121.171 295.313 119.866 296.677 118.508C299.137 116.061 304.58 116.283 307.776 119.102C307.776 118.716 307.065 117.544 307.776 117.478C308.38 117.492 308.972 117.673 309.504 118.006C310.035 118.339 310.49 118.814 310.831 119.391Z" fill="#42170D"/>
<path d="M311.26 134.936C312.765 134.765 314.072 135.714 314.187 137.064C314.302 138.414 313.175 139.638 311.67 139.801C310.165 139.964 308.858 139.059 308.743 137.672C308.628 136.285 309.761 135.069 311.26 134.936Z" fill="#E8AA80"/>
<path d="M307.232 131.257C306.86 130.673 306.331 130.249 305.728 130.052C305.125 129.855 304.482 129.895 303.901 130.167" stroke="#1D0100" stroke-width="0.5" stroke-miterlimit="10" stroke-linecap="round"/>
<path d="M297.215 129.574C297.407 129.38 297.631 129.234 297.874 129.146C298.116 129.057 298.372 129.028 298.625 129.061C298.878 129.093 299.122 129.185 299.342 129.332C299.563 129.479 299.754 129.678 299.905 129.915" stroke="#1D0100" stroke-width="0.5" stroke-miterlimit="10" stroke-linecap="round"/>
<path d="M302.768 134.906C302.845 134.491 303.126 134.209 303.408 134.276C303.553 134.339 303.671 134.465 303.738 134.626C303.804 134.788 303.815 134.973 303.767 135.143C303.69 135.559 303.408 135.841 303.126 135.774C302.982 135.71 302.864 135.585 302.797 135.423C302.73 135.261 302.72 135.076 302.768 134.906Z" fill="#262E4A"/>
<path d="M296.741 133.46C296.818 133.045 297.1 132.763 297.382 132.829C297.528 132.892 297.647 133.017 297.715 133.178C297.783 133.34 297.794 133.526 297.747 133.697C297.67 134.113 297.388 134.394 297.106 134.328C296.961 134.265 296.841 134.14 296.773 133.979C296.705 133.817 296.694 133.631 296.741 133.46Z" fill="#262E4A"/>
<path d="M300.514 134.743C300.46 135.126 300.327 135.489 300.126 135.8C299.926 136.111 299.663 136.362 299.361 136.53C299.43 137.03 299.607 137.501 299.873 137.902" stroke="#CF5953" stroke-width="0.5" stroke-linecap="round" stroke-linejoin="round"/>
<path d="M300.321 139.741C300.321 139.741 301.73 140.32 303.901 138.963" stroke="#CF5953" stroke-width="0.5" stroke-linecap="round" stroke-linejoin="round"/>
<path d="M304.728 131.554C305.223 131.554 305.707 131.724 306.119 132.042C306.531 132.361 306.852 132.814 307.041 133.344C307.231 133.874 307.28 134.457 307.184 135.019C307.087 135.582 306.849 136.098 306.498 136.504C306.148 136.91 305.702 137.186 305.216 137.298C304.73 137.409 304.227 137.352 303.769 137.133C303.312 136.913 302.921 136.541 302.645 136.065C302.37 135.588 302.223 135.027 302.223 134.454C302.223 133.684 302.487 132.947 302.957 132.403C303.427 131.859 304.063 131.554 304.728 131.554Z" stroke="#332C4A" stroke-width="0.5" stroke-miterlimit="10"/>
<path d="M295.371 133.534C295.448 133.024 295.652 132.551 295.957 132.172C296.263 131.794 296.657 131.527 297.091 131.403C297.526 131.279 297.982 131.305 298.404 131.476C298.826 131.647 299.196 131.957 299.469 132.367C299.741 132.778 299.905 133.271 299.94 133.788C299.975 134.304 299.879 134.821 299.665 135.276C299.451 135.73 299.127 136.103 298.733 136.348C298.338 136.593 297.891 136.7 297.446 136.656C297.132 136.609 296.83 136.492 296.556 136.309C296.282 136.127 296.041 135.884 295.848 135.594C295.656 135.304 295.514 134.972 295.432 134.619C295.35 134.265 295.329 133.897 295.371 133.534Z" stroke="#332C4A" stroke-width="0.5" stroke-miterlimit="10"/>
<path d="M302.492 133.193C302.124 132.921 301.707 132.75 301.273 132.693C300.839 132.637 300.4 132.696 299.988 132.866" stroke="#332C4A" stroke-width="0.5" stroke-miterlimit="10"/>
<path d="M307.219 133.949C308.12 134.207 308.983 134.617 309.781 135.166" stroke="#332C4A" stroke-width="0.5" stroke-miterlimit="10" stroke-linecap="round"/>
<path d="M314.674 150.999L311.67 148.626L303.62 157.771C302.55 156.065 300.475 153.247 300.078 148.826L295.416 150.31L293.923 190.306L314.418 189.609L314.674 150.999Z" fill="#53AEDB"/>
<path d="M303.62 157.771C306.348 154.611 309.589 150.206 310.6 148.04L312.048 148.619L310.805 157.793C309.051 156.577 306.47 156.339 303.62 157.771Z" fill="#78C8E3"/>
<path d="M303.62 157.778C302.305 154.792 301.264 151.655 300.513 148.418L298.125 149.368L297.92 157.318C298.804 156.829 299.787 156.627 300.763 156.732C301.739 156.986 302.695 157.336 303.62 157.778Z" fill="#78C8E3"/>
<path d="M303.53 158.156C301.743 168.806 300.622 177.098 300.622 189.58" stroke="#4484B8" stroke-miterlimit="10" stroke-linecap="round"/>
<path d="M288.454 178.781L294.685 180.754" stroke="#BFD2FF" stroke-width="0.5" stroke-miterlimit="10" stroke-linecap="round"/>
<path d="M300.213 148.204C300.213 148.204 298.451 156.147 297.318 162.851C295.69 172.348 294.554 181.95 293.917 191.604C293.031 205.261 293.031 218.975 293.917 232.632H286.75C286.75 232.632 287.801 157.237 290.849 152.438C292.399 149.998 300.213 148.204 300.213 148.204Z" fill="#FEFFFE"/>
<path d="M300.494 148.048C300.494 148.048 298.195 159.795 297.478 164.089C296.761 168.383 295.742 173.679 295.742 173.679C295.742 173.679 291.599 167.709 292.021 166.73C292.444 165.751 295.121 163.57 295.121 163.57C295.121 163.57 291.278 160.352 291.797 159.469C292.316 158.586 295.473 150.006 296.831 148.923C297.606 148.315 300.494 148.048 300.494 148.048Z" fill="#BFD2FF"/>
<path d="M286.59 221.678L290.439 219.964V217.806L286.744 218.874L286.59 221.678Z" fill="#BFD2FF"/>
<path d="M279.059 165.654C278.771 164.021 278.282 162.445 277.605 160.974C277.262 160.241 276.785 159.603 276.208 159.105C275.631 158.607 274.966 158.26 274.262 158.09C273.603 157.975 272.93 158.079 272.321 158.389C271.711 158.698 271.189 159.201 270.816 159.84C271.2 160.277 271.578 160.715 271.988 161.264C270.609 161.293 269.238 161.509 267.902 161.909C267.319 162.08 266.66 162.398 266.519 163.073C266.485 163.309 266.507 163.55 266.583 163.772C266.659 163.994 266.785 164.188 266.948 164.334C267.253 164.599 267.605 164.781 267.979 164.868C267.904 165.174 267.894 165.496 267.95 165.807C268.006 166.118 268.125 166.409 268.299 166.655C268.697 167.15 269.241 167.455 269.823 167.508C269.78 167.844 269.817 168.188 269.93 168.501C270.043 168.815 270.228 169.087 270.464 169.288C270.703 169.477 270.979 169.596 271.266 169.635C271.554 169.674 271.846 169.631 272.116 169.511C272.238 170.012 272.503 170.451 272.869 170.754C273.234 171.057 273.678 171.207 274.127 171.179C275.024 171.179 276.196 170.312 277.054 169.941C277.942 168.665 278.622 167.213 279.059 165.654Z" fill="#E8AA80"/>
<path d="M275.901 169.274L279.846 172.618L280.961 165.069L278.22 163.57L275.901 169.274Z" fill="#E8AA80"/>
<path d="M319.81 155.642C318.702 151.111 311.023 148.04 311.023 148.04C311.023 148.04 305.259 154.47 304.292 165.973C303.011 181.8 308.288 232.632 308.288 232.632L323.582 231.423C323.582 231.423 322.513 166.722 319.81 155.642Z" fill="#FEFFFE"/>
<path d="M310.838 217.1L310.612 219.205L320.139 220.577L320.365 218.472L310.838 217.1Z" fill="#BFD2FF"/>
<path d="M303.805 172.062C303.805 172.062 303.421 163.348 306.073 156.376C307.308 153.34 308.763 150.43 310.421 147.677L314.488 149.672C314.488 149.672 310.921 159.046 310.735 161.538C310.677 162.354 307.11 163.763 307.11 163.763L310.043 168.384L303.805 172.062Z" fill="#BFD2FF"/>
<path d="M318.99 154.485C318.151 152.794 315.788 150.035 313.867 151.34C310.716 153.417 299.918 169.14 299.918 169.14L280.705 165.15L279.232 175.192C279.232 175.192 298.054 183.001 302.134 181.674C306.213 180.346 316.986 169.926 318.606 165.031C320.226 160.136 320.092 156.777 318.99 154.485Z" fill="#FEFFFE"/>
<path d="M304.632 180.242C309.115 177.12 314.136 174.027 317.312 169.859" stroke="#BFD2FF" stroke-width="0.5" stroke-miterlimit="10" stroke-linecap="round"/>
<path d="M311.247 175.77C313.233 175.77 316.083 174.888 317.312 173.864" stroke="#BFD2FF" stroke-width="0.5" stroke-miterlimit="10" stroke-linecap="round"/>
<path d="M282.587 164.89V178.878L277.874 176.727L279.059 163.741L282.587 164.89Z" fill="#BFD2FF"/>
<path d="M100.817 45.2862L102.495 38.8487C102.495 38.8487 106.338 40.9698 107.523 43.128C108.707 45.2862 115.394 52.0054 116.546 51.5604C117.699 51.1154 118.135 38.2109 118.135 38.2109L124.283 41.9859C124.283 41.9859 124.283 60.5268 120.549 61.5651C116.815 62.6034 101.618 56.1289 101.618 56.1289L100.817 45.2862Z" fill="#BFD2FF"/>
<path d="M198.952 218.59L184.431 228.475L188.699 236.882L203.22 226.997L198.952 218.59Z" fill="#242323"/>
<path d="M189.429 221.003L176.076 195.542L184.549 189.802L197.575 215.455L189.429 221.003Z" fill="#242323"/>
<path d="M231.757 146.466L167.878 189.952L172.847 199.74L236.726 156.254L231.757 146.466Z" fill="#126D97"/>
<path d="M197.242 236.125C181.718 247.353 121.965 241.739 112.531 186.398C107.676 157.919 125.378 133.549 127.543 122.958C129.285 114.459 121.062 99.0403 121.062 99.0403L127.6 93.7821L147.537 133.245C147.537 133.245 118.34 167.901 144.066 195.453C158.925 211.362 172.079 206.066 178.157 199.399L197.242 236.125Z" fill="#9AB2A8"/>
<path d="M191.408 150.455L176.983 161.253L183.384 172.719L197.809 161.921L191.408 150.455Z" fill="#F2F2F2"/>
<path d="M203.21 141.619L195.083 147.703L199.836 156.217L207.962 150.133L203.21 141.619Z" fill="#F2F2F2"/>
<path d="M173.916 163.547L167.693 168.206L172.446 176.72L178.669 172.062L173.916 163.547Z" fill="#F2F2F2"/>
<path d="M122.702 37.0543L109.692 46.7937L131.269 85.4469L144.279 75.7074L122.702 37.0543Z" fill="#126D97"/>
<path d="M116.086 41.9499L109.578 46.8217L127.445 78.8292L133.953 73.9574L116.086 41.9499Z" fill="#0F5985"/>
<path d="M140.473 64.1073L123.504 76.8101L125.882 81.0702L142.851 68.3675L140.473 64.1073Z" fill="#33A8B5"/>
<path d="M122.047 31.9395L105.642 44.2195L108.02 48.4797L124.425 36.1997L122.047 31.9395Z" fill="#33A8B5"/>
<path d="M143.61 66.7223L124.269 81.2006L167.051 157.84L186.393 143.362L143.61 66.7223Z" fill="#F2F2F2"/>
<path d="M133.939 73.9585L124.268 81.1976L167.051 157.838L176.721 150.598L133.939 73.9585Z" fill="#CFCFCF"/>
<path d="M135.998 85.2089L125.67 92.9371L157.843 150.593L168.171 142.865L135.998 85.2089Z" fill="#126D97"/>
<path d="M203.872 130.811L161.152 162.614L166.613 172.45L209.333 140.648L203.872 130.811Z" fill="#414046"/>
<path d="M141.797 126.04C146.1 123.995 148.157 118.298 146.392 113.315C144.626 108.332 139.706 105.95 135.403 107.995C131.1 110.04 129.043 115.737 130.809 120.72C132.575 125.703 137.494 128.085 141.797 126.04Z" fill="#212126"/>
<path d="M141.14 124.171C144.552 122.547 146.181 118.027 144.778 114.076C143.375 110.125 139.472 108.238 136.06 109.863C132.648 111.488 131.019 116.007 132.422 119.959C133.825 123.91 137.728 125.796 141.14 124.171Z" fill="#414046"/>
<path d="M145.622 204.175L115.47 272.554H182.16L169.434 207.624C166.796 194.155 151.053 191.871 145.622 204.175Z" fill="#F2F2F2"/>
<path d="M221.195 277.137V281.172H102.636V277.115C102.663 275.602 102.983 274.115 103.571 272.764C104.16 271.412 105.002 270.231 106.037 269.306C108.111 267.404 110.686 266.384 113.331 266.413H210.499C216.404 266.339 221.195 271.189 221.195 277.137Z" fill="white"/>
<path d="M217.275 279.474V281.172H102.636V277.115C102.655 275.592 102.971 274.093 103.56 272.731C104.149 271.369 104.995 270.178 106.037 269.246C107.131 268.878 108.266 268.691 109.405 268.69H206.586C212.491 268.712 217.275 273.533 217.275 279.474Z" fill="#CFD2D1"/>
<path d="M165.338 218.947C166.479 213.283 163.438 207.62 158.547 206.299C153.656 204.978 148.765 208.499 147.625 214.163C146.484 219.827 149.524 225.49 154.415 226.811C159.307 228.132 164.197 224.612 165.338 218.947Z" fill="#212126"/>
<path d="M163.513 218.464C164.417 213.973 162.006 209.483 158.127 208.436C154.248 207.389 150.371 210.182 149.467 214.673C148.563 219.165 150.974 223.655 154.853 224.702C158.732 225.748 162.609 222.956 163.513 218.464Z" fill="#414046"/>
<path d="M30.1508 277.842L94.2526 130.864C94.379 130.569 94.5547 130.307 94.7695 130.091C94.9843 129.876 95.2338 129.712 95.5037 129.609C95.7737 129.506 96.0585 129.467 96.3418 129.492C96.625 129.518 96.901 129.609 97.1538 129.759L97.2947 129.848C97.8062 130.156 98.192 130.686 98.3683 131.322C98.5445 131.958 98.497 132.649 98.2362 133.245L34.1407 280.223C34.0143 280.517 33.8386 280.78 33.6239 280.995C33.4091 281.211 33.1595 281.375 32.8896 281.477C32.6197 281.58 32.3348 281.62 32.0516 281.594C31.7683 281.568 31.4923 281.478 31.2395 281.328L31.0986 281.239C30.5848 280.933 30.1965 280.404 30.0188 279.767C29.8412 279.13 29.8886 278.438 30.1508 277.842Z" fill="#8E3A23"/>
<path d="M39.9688 259.598V259.464C39.9871 258.952 40.1801 258.469 40.5055 258.122C40.8309 257.774 41.262 257.59 41.7044 257.61H71.2352C71.6781 257.59 72.11 257.774 72.4364 258.121C72.7628 258.469 72.9572 258.951 72.9772 259.464V259.598C72.9572 260.111 72.7628 260.593 72.4364 260.941C72.11 261.288 71.6781 261.472 71.2352 261.452H41.6788C41.2408 261.464 40.8162 261.276 40.4964 260.93C40.1766 260.583 39.9871 260.105 39.9688 259.598Z" fill="#682211"/>
<path d="M53.3028 229.079V228.946C53.3094 228.694 53.3587 228.447 53.4479 228.218C53.5372 227.989 53.6645 227.782 53.8227 227.61C53.9809 227.438 54.1669 227.303 54.37 227.214C54.5731 227.125 54.7893 227.084 55.0063 227.092H85.786C86.003 227.084 86.2193 227.125 86.4223 227.214C86.6254 227.303 86.8114 227.438 86.9696 227.61C87.1278 227.782 87.2552 227.989 87.3444 228.218C87.4336 228.447 87.483 228.694 87.4896 228.946V229.079C87.483 229.331 87.4336 229.578 87.3444 229.807C87.2552 230.036 87.1278 230.243 86.9696 230.415C86.8114 230.587 86.6254 230.722 86.4223 230.811C86.2193 230.9 86.003 230.941 85.786 230.933H55.0063C54.7893 230.941 54.5731 230.9 54.37 230.811C54.1669 230.722 53.9809 230.587 53.8227 230.415C53.6645 230.243 53.5372 230.036 53.4479 229.807C53.3587 229.578 53.3094 229.331 53.3028 229.079Z" fill="#682211"/>
<path d="M65.0805 199.807V199.673C65.0805 199.181 65.2492 198.71 65.5494 198.362C65.8497 198.014 66.2569 197.819 66.6816 197.819H95.5975C96.0222 197.819 96.4294 198.014 96.7297 198.362C97.03 198.71 97.1986 199.181 97.1986 199.673V199.807C97.1986 200.298 97.03 200.77 96.7297 201.118C96.4294 201.465 96.0222 201.661 95.5975 201.661H66.656C66.2358 201.653 65.8351 201.454 65.5403 201.107C65.2456 200.76 65.0804 200.293 65.0805 199.807Z" fill="#682211"/>
<path d="M76.1793 174.213V174.079C76.1793 173.588 76.348 173.116 76.6483 172.768C76.9485 172.421 77.3558 172.225 77.7804 172.225H106.696C107.121 172.225 107.528 172.421 107.829 172.768C108.129 173.116 108.298 173.588 108.298 174.079V174.213C108.298 174.705 108.129 175.176 107.829 175.524C107.528 175.872 107.121 176.067 106.696 176.067H77.7804C77.3558 176.067 76.9485 175.872 76.6483 175.524C76.348 175.176 76.1793 174.705 76.1793 174.213Z" fill="#682211"/>
<path d="M87.9315 149.902V149.768C87.9315 149.277 88.1002 148.805 88.4004 148.457C88.7007 148.11 89.1079 147.914 89.5326 147.914H118.449C118.873 147.914 119.28 148.11 119.581 148.457C119.881 148.805 120.05 149.277 120.05 149.768V149.902C120.05 150.394 119.881 150.865 119.581 151.213C119.28 151.561 118.873 151.756 118.449 151.756H89.5326C89.3221 151.757 89.1135 151.71 88.9189 151.617C88.7242 151.524 88.5474 151.387 88.3985 151.215C88.2497 151.043 88.1318 150.838 88.0516 150.612C87.9715 150.387 87.9306 150.146 87.9315 149.902Z" fill="#682211"/>
<path d="M63.0055 277.968L124.104 132.14C124.218 131.852 124.381 131.594 124.584 131.381C124.787 131.169 125.025 131.007 125.284 130.905C125.543 130.803 125.817 130.763 126.09 130.788C126.363 130.813 126.628 130.902 126.87 131.05L126.998 131.131C127.492 131.454 127.861 131.983 128.029 132.611C128.197 133.238 128.151 133.916 127.901 134.506L66.8033 280.334C66.6893 280.622 66.5259 280.88 66.323 281.093C66.1202 281.305 65.8821 281.468 65.6233 281.57C65.3645 281.673 65.0904 281.714 64.8176 281.69C64.5449 281.666 64.2791 281.578 64.0366 281.432L63.9021 281.343C63.4092 281.019 63.0419 280.489 62.8753 279.862C62.7086 279.234 62.7552 278.557 63.0055 277.968Z" fill="#8D3B26"/>
<path d="M73.3935 119.413C73.3935 119.413 92.7028 111.203 110.539 115.92C112.749 116.506 114.843 101.428 114.843 101.428L92.2032 84.0148L76.506 91.6685L73.3935 119.413Z" fill="#6F788C"/>
<path d="M108.067 144.228L110.526 136.953L103.911 134.194L101.848 142.656L108.067 144.228Z" fill="#FEA483"/>
<path d="M116.47 149.39C116.124 150.451 100.913 149.39 100.234 148.485C100.15 148.34 100.092 148.176 100.065 148.004C100.037 147.832 100.041 147.655 100.074 147.484C100.254 145.712 101.464 142.671 101.515 142.471C104.858 142.916 105.825 142.864 108.9 143.079C109.873 143.702 115.522 145.897 116.425 148.389C116.492 148.543 116.53 148.712 116.538 148.884C116.546 149.056 116.522 149.229 116.47 149.39Z" fill="#3D3C73"/>
<path d="M116.47 149.39C116.124 150.451 100.913 149.39 100.234 148.485C100.15 148.34 100.092 148.176 100.065 148.004C100.037 147.832 100.041 147.655 100.074 147.484C102.868 148.105 105.694 148.511 108.534 148.7C111.167 148.762 113.801 148.658 116.425 148.389C116.492 148.543 116.53 148.712 116.538 148.884C116.546 149.056 116.522 149.229 116.47 149.39Z" fill="#9992AD"/>
<path d="M80.8226 166.737L82.5261 157.8L76.0705 155.583L74.5718 165.343L80.8226 166.737Z" fill="#FEA483"/>
<path d="M89.3276 171.654C89.001 172.73 73.7713 172.107 73.0796 171.209C72.9942 171.066 72.9344 170.904 72.9036 170.733C72.8728 170.563 72.8717 170.387 72.9003 170.215C73.0412 168.443 74.1812 165.365 74.2324 165.165C77.5819 165.513 78.5554 165.432 81.6295 165.565C82.6158 166.166 88.3093 168.198 89.2636 170.66C89.3335 170.812 89.3753 170.978 89.3863 171.15C89.3973 171.321 89.3773 171.493 89.3276 171.654Z" fill="#3D3C73"/>
<path d="M89.3276 171.654C89.001 172.73 73.7713 172.107 73.0796 171.209C72.9942 171.066 72.9344 170.904 72.9036 170.733C72.8728 170.563 72.8717 170.387 72.9003 170.215C75.707 170.76 78.5419 171.087 81.3861 171.194C84.0184 171.19 86.6483 171.014 89.2636 170.668C89.3326 170.818 89.3739 170.983 89.3849 171.153C89.3959 171.323 89.3764 171.494 89.3276 171.654Z" fill="#9992AD"/>
<path d="M102.354 73.2906C102.354 73.2906 102.809 78.0668 103.379 79.8912C104.487 83.4289 121.952 97.4681 122.208 100.034C122.579 104.135 110.43 140.987 110.43 140.987C109.566 140.669 103.129 138.384 102.047 136.612C102.047 136.612 108.624 109.705 107.651 106.79C106.825 104.306 94.5729 98.6324 94.5729 98.6324C94.5729 98.6324 92.357 118.086 90.1923 131.739C88.3606 143.316 82.8528 162.51 82.8528 162.51C80.8354 162.376 76.3139 161.56 73.3935 159.818C73.3935 159.818 77.012 141.277 78.3953 124.301C79.6314 109.112 80.1053 74.188 80.1053 74.188L102.354 73.2906Z" fill="#1A132E"/>
<path d="M97.3011 40.4732C96.6607 41.326 93.356 48.7795 90.4164 47.7412C87.7906 46.8142 84.3962 40.8811 83.2562 36.7872C87.8162 34.9702 88.1684 28.4289 88.2453 26.6713C88.6872 26.7973 89.8016 27.1459 90.1666 27.2646C92.0879 27.8282 93.5545 28.288 95.5847 28.9481L96.3341 29.1928C96.3341 29.1928 96.3341 29.2522 96.3341 29.2818C95.8706 30.6438 95.5315 32.0581 95.3222 33.5018C95.2772 33.8905 95.2494 34.2816 95.2389 34.6735C95.2207 35.4624 95.3049 36.2499 95.4887 37.0097C95.5655 37.3064 95.6552 37.603 95.7577 37.8923C96.1033 38.8727 96.6301 39.7537 97.3011 40.4732Z" fill="#FEA483"/>
<path d="M95.4759 37.0172C90.5829 33.487 91.2682 26.9606 91.2554 25.8926C91.2554 25.8036 90.173 27.1237 90.1794 27.0941C92.7412 27.8357 93.3816 28.1917 95.5976 28.9556L96.3469 29.2077C96.3469 29.2077 96.3469 29.2671 96.3469 29.2967C95.9114 30.7281 95.3414 32.1001 95.335 33.5167C95.29 33.9054 95.2622 34.2965 95.2517 34.6884C95.2258 35.4733 95.3014 36.2582 95.4759 37.0172Z" fill="#EB8173"/>
<path d="M106.421 20.182L106.338 20.2933C106.138 20.5947 105.846 20.7958 105.522 20.8552C105.198 20.9145 104.866 20.8275 104.596 20.6122C104.596 20.7827 104.916 22.9038 104.141 23.2005C103.366 23.4971 94.829 18.009 94.829 18.009L95.5207 12.1871V11.4455C96.0034 10.8352 96.605 10.3673 97.2755 10.0809C98.3321 9.62749 99.4872 9.58326 100.567 9.95482C103.379 10.8225 106.748 14.9757 106.786 16.3922C106.818 17.4157 105.3 17.0226 105.3 17.0226C105.3 17.0226 107.183 18.8841 106.421 20.182Z" fill="#27334F"/>
<path d="M106.421 20.1819L106.338 20.2931C105.819 18.4464 103.699 15.9694 103.699 15.9694C103.699 15.9694 104.782 16.0509 105.454 16.0658C106.126 16.0806 103.68 12.6987 101.15 11.2155C99.9427 10.5628 98.6382 10.1852 97.3076 10.103C98.3642 9.64959 99.5193 9.60535 100.599 9.97692C103.411 10.8446 106.78 14.9978 106.818 16.4143C106.85 17.4378 105.332 17.0447 105.332 17.0447C105.332 17.0447 107.183 18.884 106.421 20.1819Z" fill="#3A5B70"/>
<path d="M103.744 28.3101C103.654 28.9183 103.046 29.3558 102.847 29.7934C102.649 30.231 100.029 36.0454 97.8711 35.6301C95.4695 35.1851 92.4658 31.7068 91.2618 28.095C88.098 26.8936 85.818 25.1285 86.3752 20.56C87.1117 14.4489 91.4987 10.2141 96.0907 11.0967C97.5605 11.4067 98.9373 12.1475 100.09 13.2484C101.242 14.3494 102.132 15.7737 102.674 17.3858C103.096 18.5661 103.344 19.8192 103.411 21.094C103.456 21.9084 103.428 22.7262 103.328 23.534C103.157 24.5908 102.906 25.6282 102.578 26.634C102.556 26.6992 102.552 26.7708 102.567 26.8387C102.582 26.9066 102.615 26.9673 102.662 27.0122C103.066 27.3928 103.43 27.8286 103.744 28.3101Z" fill="#FEA483"/>
<path d="M102.047 19.9444C102.226 22.4215 99.7668 20.293 99.7668 20.293C98.7741 22.7478 94.5793 24.8096 94.5793 24.8096L95.0212 21.3239L100.375 15.6652L102.674 17.3932C103.096 18.5735 103.344 19.8266 103.411 21.1014C102.914 20.7883 102.455 20.3991 102.047 19.9444Z" fill="#EB8173"/>
<path d="M103.975 20.1893C103.456 20.7974 101.368 18.083 101.368 18.083C101.368 18.083 101.663 19.5663 101.112 19.9519C100.747 20.1893 100.209 19.7888 99.453 19.0471C97.5829 23.2226 92.786 27.0272 92.786 27.0272L87.8738 30.3942C87.8341 30.4217 87.7887 30.4365 87.7425 30.4371C87.6962 30.4377 87.6506 30.4242 87.6102 30.3978C87.5699 30.3715 87.5363 30.3333 87.5129 30.287C87.4895 30.2408 87.477 30.1882 87.4767 30.1346L87.6176 27.7391L86.7338 28.7774C86.7338 28.7774 86.5481 27.9023 86.0934 22.3623C85.6387 16.8222 88.1492 12.7729 90.8199 11.3193C92.6387 10.3329 95.5207 9.88789 97.647 11.2599L98.2874 10.9781L102.393 13.4403C102.393 13.4403 104.5 19.5811 103.975 20.1893Z" fill="#27334F"/>
<path d="M93.5545 23.1187C94.8354 24.1125 95.3478 25.8034 94.6625 26.8936C93.9772 27.9838 92.3761 28.0654 91.076 27.0716C89.7759 26.0778 89.2828 24.3943 89.9681 23.2967C90.6533 22.199 92.2737 22.1249 93.5545 23.1187Z" fill="#FEA483"/>
<path d="M101.061 25.1062C101.265 25.1878 101.317 25.5957 101.182 26.0258C101.048 26.456 100.772 26.7675 100.542 26.6562C100.311 26.545 100.286 26.1741 100.42 25.744C100.555 25.3138 100.862 25.032 101.061 25.1062Z" fill="#2E3252"/>
<path d="M102.521 23.4153C102.179 23.0825 101.751 22.8926 101.304 22.8765C100.858 22.8603 100.42 23.0188 100.061 23.3263" stroke="#27334F" stroke-width="0.5" stroke-miterlimit="10" stroke-linecap="round"/>
<path d="M101.618 31.5662C101.189 31.499 100.776 31.3332 100.403 31.0785C100.03 30.8237 99.7049 30.4852 99.4466 30.0829" stroke="#27334F" stroke-width="0.5" stroke-miterlimit="10" stroke-linecap="round"/>
<path d="M87.2846 35.7413C87.2846 35.7413 91.9534 43.0836 93.2151 42.7572C96.1419 42.0156 97.1538 36.8686 97.1538 36.8686L103.097 40.2876L105.857 74.2546C100.638 76.7836 90.7302 77.3992 84.0824 74.6625C86.4521 65.355 84.582 54.7644 81.764 41.4594L87.2846 35.7413Z" fill="#748BE9"/>
<path d="M93.3624 43.1058C94.7074 53.5555 95.5207 64.9768 94.7458 76.1458" stroke="#323B99" stroke-width="0.5" stroke-miterlimit="10" stroke-linecap="round"/>
<path d="M87.0221 34.7477C87.0221 34.7477 91.4347 40.881 92.1136 41.6004C92.6323 42.1492 93.292 42.7425 93.292 42.7425L94.0157 41.4224C94.0925 41.2741 96.9105 36.8094 96.9105 36.8094L98.2618 37.3138L98.3323 42.8835C98.3323 42.8835 96.8464 41.9638 95.9626 42.1418C95.0944 42.4011 94.2392 42.7155 93.4009 43.0837C92.4159 42.6986 91.4077 42.3987 90.3844 42.1863C89.5582 42.1196 88.1941 43.0689 88.1941 43.0689L86.3432 36.7798L87.0221 34.7477Z" fill="#92C4F7"/>
<path d="M92.9717 64.124C92.9717 68.4551 90.8134 77.3029 90.0577 87.3966C89.6094 93.389 86.1767 123.24 85.754 124.768C85.1135 127.163 74.4566 124.582 72.9451 120.874C72.1574 118.924 77.9662 82.3089 77.14 68.6183C76.7365 61.9435 75.6926 49.0835 77.7804 43.4026C79.785 37.907 85.1519 34.7402 85.1519 34.7402C85.6451 34.807 92.9717 48.2158 92.9717 64.124Z" fill="#FEFFFE"/>
<path d="M93.83 59.9115C93.83 50.9377 91.2682 40.7698 86.9644 32.545C86.0422 33.3683 84.7485 34.77 84.1849 35.3929C85.517 38.5078 85.3185 46.7623 85.5427 47.1405C85.7668 47.5187 88.3094 48.4754 89.9937 49.0984C89.174 51.3233 88.3798 53.2293 88.4439 54.4531C88.5079 55.4617 92.4978 58.7323 93.83 59.9115Z" fill="#BFD2FF"/>
<path d="M76.2626 112.575C80.1949 112.16 83.4804 110.773 85.7988 108.014C85.7988 108.014 86.3688 109.623 86.0037 110.15C84.5948 112.197 78.4209 114.882 76.6084 114.088C76.0961 113.873 76.2626 112.575 76.2626 112.575Z" fill="#BFD2FF"/>
<path d="M119.172 96.3779C119.089 96.6671 107.817 85.995 103.718 81.2114C98.6589 75.3524 96.9873 63.412 96.9169 62.0178C96.443 53.1181 95.8153 36.2977 95.8153 36.2977C95.8153 36.2977 101.227 37.6549 104 39.8353C105.191 41.2074 105.665 51.264 105.838 57.5012C105.87 58.6433 106.389 72.5342 107.388 77.2584C108.477 82.3461 119.928 93.8637 119.172 96.3779Z" fill="#FEFFFE"/>
<path d="M95.3221 35.4447C95.7512 43.6027 96.1996 53.3998 96.7952 61.543C98.2874 59.585 100.811 56.1958 100.894 55.7656C101.112 54.6383 99.5683 51.9017 98.2298 50.3516L98.1785 50.233C100.394 48.9648 103.187 47.7707 103.097 47.3332C102.585 44.819 98.8126 37.4694 97.6277 36.483C96.9732 35.8637 96.1661 35.5002 95.3221 35.4447Z" fill="#BFD2FF"/>
<path d="M127.652 52.7472C127.652 53.4888 125.474 53.0068 125.058 53.1329C124.261 53.4816 123.482 53.8853 122.727 54.3417C122.251 55.9626 121.25 57.3057 119.934 58.087L119.486 58.3688C117.398 59.6964 115.438 61.3354 115.438 61.3354L113.709 55.2614L117.469 53.2219C117.469 53.2219 117.584 52.8436 117.77 52.28C118.301 50.641 119.396 47.4148 119.896 46.9402C120.736 46.3858 121.636 45.9643 122.573 45.6868C123.329 45.4421 126.083 45.5756 126.249 46.206C126.454 46.9476 123.687 46.8883 123.207 47.0959C122.635 47.3833 122.083 47.7205 121.555 48.1045C122.384 47.861 123.227 47.685 124.078 47.578C124.718 47.578 126.864 47.7782 126.986 48.4383C127.152 49.3283 124.539 48.9871 124.283 49.0983L122.246 49.9661C122.246 49.9661 123.617 49.7584 124.725 49.6249C125.833 49.4914 127.697 50.3665 127.632 50.9228C127.562 51.6644 125.666 51.0934 124.936 51.2194C124.145 51.447 123.368 51.7369 122.611 52.0872C122.829 52.0352 124.61 51.6199 125.084 51.6125C125.557 51.6051 127.664 52.1094 127.652 52.7472Z" fill="#FEA483"/>
<path d="M119.486 58.3613C117.398 59.6889 115.438 61.3279 115.438 61.3279L113.709 55.2539L117.469 53.2143C117.469 53.2143 117.584 52.8361 117.77 52.2725L119.486 58.3613Z" fill="#EB8173"/>
<path d="M84.7613 37.2542C87.6241 41.9488 98.2106 59.852 99.8309 59.3328C101.752 58.7247 116.636 52.8954 116.636 52.8954L118.135 63.9162C118.135 63.9162 99.8309 72.4598 96.3597 72.6007C92.8885 72.7417 84.3066 62.3365 81.1556 58.4058C78.0046 54.4751 78.2352 48.5716 79.3624 43.7584C80.2846 39.8351 84.3642 36.6016 84.7613 37.2542Z" fill="#FEFFFE"/>
<path d="M79.689 57.7385C83.5045 62.3315 87.655 66.5348 92.0943 70.3019" stroke="#BFD2FF" stroke-width="0.5" stroke-miterlimit="10" stroke-linecap="round"/>
<path d="M99.2097 71.8964L106.338 69.1449" stroke="#BFD2FF" stroke-width="0.5" stroke-miterlimit="10" stroke-linecap="round"/>
<path d="M99.1008 58.8879C99.3757 59.1435 99.7223 59.2728 100.074 59.2513C100.567 59.2513 105.64 57.1599 105.64 57.1599" stroke="#BFD2FF" stroke-width="0.5" stroke-miterlimit="10" stroke-linecap="round"/>
</svg>
